<svg xmlns="http://www.w3.org/2000/svg" width="16.248" height="20.03" viewBox="0 0 16.248 20.03">
  <g id="Group_1562" data-name="Group 1562" transform="translate(-343.483 -49.5)">
    <g id="Icon_ionic-ios-notifications" data-name="Icon ionic-ios-notifications" transform="translate(344 50)">
      <path id="Path_782" data-name="Path 782" d="M16.9,30.857a2.242,2.242,0,0,0,2.288-2.521H14.6A2.243,2.243,0,0,0,16.9,30.857Z" transform="translate(-9.299 -11.827)" fill="none" stroke="#f8ad39" stroke-width="1"/>
      <path id="Path_783" data-name="Path 783" d="M21.783,18.023c-.732-.965-2.174-1.531-2.174-5.855,0-4.437-1.96-6.221-3.786-6.649-.171-.043-.295-.1-.295-.281V5.1a1.161,1.161,0,1,0-2.321,0v.138c0,.176-.124.238-.295.281-1.831.433-3.786,2.212-3.786,6.649,0,4.323-1.441,4.885-2.174,5.855a.944.944,0,0,0,.756,1.512H21.031A.944.944,0,0,0,21.783,18.023Z" transform="translate(-6.761 -3.93)" fill="none" stroke="#f8ad39" stroke-width="1"/>
    </g>
  </g>
</svg>
