<svg xmlns="http://www.w3.org/2000/svg" xmlns:xlink="http://www.w3.org/1999/xlink" width="294.061" height="209.203" viewBox="0 0 294.061 209.203">
  <defs>
    <linearGradient id="linear-gradient" x1="-10.1" y1="4.305" x2="-9.216" y2="4.305" gradientUnits="objectBoundingBox">
      <stop offset="0" stop-color="#a1cc77"/>
      <stop offset="1" stop-color="#63887e"/>
    </linearGradient>
    <linearGradient id="linear-gradient-2" x1="0.5" y1="-0.019" x2="0.5" y2="1.471" gradientUnits="objectBoundingBox">
      <stop offset="0" stop-color="#e4d5df"/>
      <stop offset="1" stop-color="#c9b1c3"/>
    </linearGradient>
    <linearGradient id="linear-gradient-3" x1="0" y1="0.5" x2="1" y2="0.5" xlink:href="#linear-gradient-2"/>
    <linearGradient id="linear-gradient-8" x1="0.5" y1="-0.039" x2="0.5" y2="1.357" xlink:href="#linear-gradient-2"/>
    <linearGradient id="linear-gradient-11" y1="0.5" x2="1" y2="0.5" gradientUnits="objectBoundingBox">
      <stop offset="0" stop-color="#ffd3b6"/>
      <stop offset="1" stop-color="#f48e76"/>
    </linearGradient>
    <linearGradient id="linear-gradient-12" x1="0.268" y1="0.065" x2="0.734" y2="0.68" xlink:href="#linear-gradient-11"/>
    <linearGradient id="linear-gradient-13" x1="0.5" y1="0" x2="0.5" y2="1" xlink:href="#linear-gradient-11"/>
    <linearGradient id="linear-gradient-14" x1="0.366" y1="1.502" x2="1.335" y2="1.502" xlink:href="#linear-gradient-11"/>
    <linearGradient id="linear-gradient-15" x1="0.327" y1="1.719" x2="1.309" y2="1.719" xlink:href="#linear-gradient-11"/>
    <linearGradient id="linear-gradient-16" y1="0.5" x2="1" y2="0.5" gradientUnits="objectBoundingBox">
      <stop offset="0" stop-color="#7c90d9"/>
      <stop offset="1" stop-color="#5968bd"/>
    </linearGradient>
    <linearGradient id="linear-gradient-18" y1="0.5" x2="1" y2="0.5" gradientUnits="objectBoundingBox">
      <stop offset="0" stop-color="#ff6575"/>
      <stop offset="1" stop-color="#d43672"/>
    </linearGradient>
    <linearGradient id="linear-gradient-19" x1="0.39" y1="0.251" x2="0.612" y2="1.093" xlink:href="#linear-gradient-18"/>
    <linearGradient id="linear-gradient-20" x1="0.151" y1="0.724" x2="1.116" y2="0.724" xlink:href="#linear-gradient-16"/>
    <linearGradient id="linear-gradient-21" x1="0.668" y1="0.139" x2="0.576" y2="0.874" xlink:href="#linear-gradient-16"/>
    <linearGradient id="linear-gradient-22" x1="0.707" y1="0.065" x2="0.309" y2="0.925" xlink:href="#linear-gradient-11"/>
    <linearGradient id="linear-gradient-24" x1="0.572" y1="-0.126" x2="0.392" y2="1.222" xlink:href="#linear-gradient-2"/>
    <linearGradient id="linear-gradient-25" x1="0.412" y1="0.281" x2="0.607" y2="1.081" xlink:href="#linear-gradient-18"/>
    <linearGradient id="linear-gradient-26" y1="0.5" x2="1" y2="0.5" gradientUnits="objectBoundingBox">
      <stop offset="0" stop-color="#f7a1bd"/>
      <stop offset="1" stop-color="#ff7588"/>
    </linearGradient>
    <linearGradient id="linear-gradient-28" x1="4.446" y1="-0.08" x2="3.613" y2="1.179" xlink:href="#linear-gradient"/>
    <linearGradient id="linear-gradient-29" x1="1.051" y1="-0.015" x2="-0.133" y2="1.187" xlink:href="#linear-gradient"/>
    <linearGradient id="linear-gradient-30" x1="-21.857" y1="0.5" x2="-20.857" y2="0.5" gradientUnits="objectBoundingBox">
      <stop offset="0" stop-color="#fff"/>
      <stop offset="0.638" stop-color="#e9f1f4"/>
    </linearGradient>
    <linearGradient id="linear-gradient-37" x1="-3.365" y1="0.5" x2="4.365" y2="0.5" xlink:href="#linear-gradient-2"/>
    <linearGradient id="linear-gradient-38" x1="-1.061" y1="0.5" x2="2.061" y2="0.5" xlink:href="#linear-gradient-2"/>
    <linearGradient id="linear-gradient-39" x1="0.423" y1="0.5" x2="0.577" y2="0.5" xlink:href="#linear-gradient-2"/>
    <linearGradient id="linear-gradient-42" x1="0.5" y1="0.032" x2="0.5" y2="1.786" xlink:href="#linear-gradient-16"/>
  </defs>
  <g id="Group_585" data-name="Group 585" transform="translate(-943.565 -133.874)">
    <g id="Group_549" data-name="Group 549" transform="translate(943.615 133.874)">
      <path id="Path_645" data-name="Path 645" d="M951.058,332.445c-4.663-22.342-7.534-45.117-5.6-67.95,1.736-20.452,6.812-41.688,19.483-58.28a58.558,58.558,0,0,1,10.518-10.763,47.921,47.921,0,0,1,13.464-7.047c4.636-1.661,9.388-2.992,13.963-4.822a50.169,50.169,0,0,0,12.119-6.862c7.365-5.691,12.636-13.228,18.8-20.085,5.123-5.7,10.857-10.932,17.608-14.643a57.4,57.4,0,0,1,22.25-6.488c9.56-.923,20.393-1.383,29.077,3.339,13.383,7.277,15.954,23.16,14.67,37.052-.707,7.648-2.811,14.869-4.606,22.3-2.106,8.718-3.171,18.622,3.186,25.9a30.02,30.02,0,0,0,10.816,7.352,90.313,90.313,0,0,0,14.324,4.686,122.943,122.943,0,0,0,32.3,3.241c10.5-.213,21.33-.92,31.5,2.227a41.884,41.884,0,0,1,21.251,15.544,54.3,54.3,0,0,1,9.656,23.635c1.721,11.107.368,22.467-2.314,33.308-1.307,5.281-2.936,10.474-4.723,15.611-.241.693.857.991,1.1.3,6.789-19.519,11.673-41.613,3.757-61.568a50.208,50.208,0,0,0-14.679-20.557c-7.417-6.021-16.377-8.8-25.811-9.552-10.846-.867-21.731.444-32.585-.287a103.352,103.352,0,0,1-32.5-7.27c-4.369-1.818-8.7-4.258-11.721-7.981-3.275-4.031-4.327-9.162-4.087-14.253.413-8.744,3.846-17.047,5.328-25.628,2.279-13.2,2.428-29.257-7.338-39.691-6.013-6.424-14.45-8.945-23.045-9.256-8.811-.319-17.946.29-26.419,2.867a54.529,54.529,0,0,0-19,10.414c-6.692,5.572-11.837,12.432-17.517,18.959a68.873,68.873,0,0,1-10.663,10.16,52.217,52.217,0,0,1-13.573,7.1c-4.7,1.7-9.533,3.043-14.182,4.9a45.789,45.789,0,0,0-12.291,7.162c-15.827,13.033-23.722,33.814-27.241,53.456-3.972,22.168-3.077,44.755.479,66.911.907,5.649,1.975,11.271,3.144,16.872.149.716,1.246.413,1.1-.3Z" transform="translate(-943.731 -133.874)" fill="#f0e6e6"/>
      <g id="Group_548" data-name="Group 548" transform="translate(42.043 9.524)">
        <path id="Path_646" data-name="Path 646" d="M1715.822,363.039a8.655,8.655,0,1,1-7.01-8.5,8.753,8.753,0,0,1,7.01,8.5.569.569,0,0,0,1.137,0,9.794,9.794,0,1,0-7.845,9.6,9.926,9.926,0,0,0,7.845-9.6A.569.569,0,0,0,1715.822,363.039Z" transform="translate(-1512.287 -296.657)" fill="#f0e6e6"/>
        <path id="Path_647" data-name="Path 647" d="M1568.252,169.115a2.5,2.5,0,0,1-5.006,0c.027-3.239,4.87-3.218,5.006,0,.031.729,1.169.733,1.137,0a3.641,3.641,0,1,0-3.641,3.641,3.7,3.7,0,0,0,3.641-3.641C1569.421,168.383,1568.283,168.384,1568.252,169.115Z" transform="translate(-1417.776 -165.474)" fill="#f0e6e6"/>
        <path id="Path_648" data-name="Path 648" d="M1087.608,347.976c-.112,2.077-3.244,2.1-3.244,0s3.131-2.078,3.244,0c.039.728,1.177.733,1.137,0a2.759,2.759,0,1,0-2.878,2.753,2.806,2.806,0,0,0,2.878-2.753C1088.785,347.245,1087.647,347.247,1087.608,347.976Z" transform="translate(-1083.227 -291.044)" fill="#f0e6e6"/>
        <path id="Path_649" data-name="Path 649" d="M1386.834,333.25a1.494,1.494,0,0,1-2.986,0,1.494,1.494,0,0,1,2.986,0c.039.728,1.177.733,1.137,0a2.631,2.631,0,1,0-2.743,2.625,2.676,2.676,0,0,0,2.743-2.625C1388.011,332.518,1386.873,332.52,1386.834,333.25Z" transform="translate(-1292.448 -280.845)" fill="#f0e6e6"/>
      </g>
    </g>
    <g id="Group_550" data-name="Group 550" transform="translate(1114.21 255.403)">
      <path id="Path_650" data-name="Path 650" d="M1532.3,561.727c-.993-2.21-1.519-.354-2.9-.461s.438-4.431-2.091-6.2-1.989,1.973-3.677,2.906.681-3.559-1.383-4.7-1.492.8-2.293,4.591-2.865-1.677-6.841-1.171-3.992,3.681-2.267,6.756,3.479.87,5.311,1.193.724,1.707-1.826,1.577-1.147.131-1.209,2.25,3.066,1.972,5.381,1.826,1.7,1.059.263,2.3-.332.863,2.764,2.992,7.86,2.2,7.86,2.2C1534.166,574.256,1533.289,563.937,1532.3,561.727Zm-17.11,1.128c-4.342.59-4.013-4.024-1.828-3.637C1513.359,559.218,1519.528,562.265,1515.186,562.855Zm3.174,4.516c-1.148-1.5,2.069-1.641,2.069-1.641C1522.659,566.782,1519.508,568.872,1518.36,567.371Zm3.487-5.39c-2.149-1.515-.241-2.913-.241-2.913.7-.92,3.508.477,3.784,2.131S1524,563.5,1521.848,561.982Zm2.762,12.916c-4.249-1.43-2.633-3.4-1.257-5.059s4.732,1.512,4.732,1.512C1531.088,573.241,1528.858,576.328,1524.61,574.9Z" transform="translate(-1509.752 -548.169)" fill="#304c3f"/>
      <path id="Path_651" data-name="Path 651" d="M1741.225,561.156c.359,1.344,3.624,1.91,4.98,2.934s3.01,2.56,1.9,2.6-6.27-2.431-6.315-1.948,2.6,4.749,4.87,7.1a17.679,17.679,0,0,0,6.651,4.273s8.705-5.2,10.538-9.318,1.881-12.111.088-9.905-2.531,3.809-3.965,3.821-.214-1.618.211-2.276,2.641-5.189,2.258-7.031-3.566-7.008-4.235-5.007-1.519,4.429-2.59,4.821-1.485-1.1-1.04-2.178a12.351,12.351,0,0,0,.37-5.112c-.224-1.688-4.9-4.187-7.065-5.422s-4.321-1.842-4.322-1.077-1.756,10.76-1.465,11.342,5.808,2.947,5.832,3.436-.464,1.28-2.55.678-3.368-1.271-3.735-.122S1740.866,559.812,1741.225,561.156Zm13.27-3.322c.194-.713,1.511-3.515,2.616-2.583,1.043.879.047,2.993-.654,3.779a2.351,2.351,0,0,1-.453.4C1754.981,560.11,1754.139,559.143,1754.495,557.834Zm-5.068-8.679a2.162,2.162,0,0,1-.674-1.6,3.621,3.621,0,0,1,.472-1.713.842.842,0,0,1,.31-.368.61.61,0,0,1,.692.153,3.384,3.384,0,0,1,.41,2.892,1.487,1.487,0,0,1-.317.648.561.561,0,0,1-.46.2A.77.77,0,0,1,1749.427,549.154Zm-3.976,9.026a1.255,1.255,0,0,1,1.593-.1,2.689,2.689,0,0,1,.951,1.424,6.409,6.409,0,0,1,.332,2.686.729.729,0,0,1-.971.652,1.817,1.817,0,0,1-.977-.767,6.746,6.746,0,0,1-1.105-2.307A1.733,1.733,0,0,1,1745.451,558.18Z" transform="translate(-1671.363 -537.098)" fill="#52895a"/>
      <path id="Path_652" data-name="Path 652" d="M1768.341,635.041a88.145,88.145,0,0,0,2.9-16.772c.415-8.034-1.538-21.63-1.538-21.63l1.117-1.075s1.371,14.555,1.329,21.872-2.509,17.94-2.509,17.94Z" transform="translate(-1690.404 -577.943)" fill="#304c3f"/>
      <path id="Path_653" data-name="Path 653" d="M1790.493,595.427c-.8,1.256,1.1,4.276,1.265,6.1s.142,4.254-.69,3.4-2.593-6.769-3.007-6.457-1.886,5.5-2.116,9.017a19.187,19.187,0,0,0,1.409,8.4s10.39,3.219,14.972,1.716,10.945-7.223,7.906-7.068-4.84.72-5.883-.419,1.127-1.337,1.954-1.471,6.012-1.627,7.194-3.26,2.979-7.9.913-7-4.6,1.976-5.684,1.4-.2-1.984.975-2.4a13.131,13.131,0,0,0,4.315-3.388c1.175-1.4-.215-6.938-.8-9.56s-1.655-4.785-2.262-4.235-9.786,6.35-10.036,7,1.852,6.771,1.482,7.142-1.348.551-2.375-1.552-1.42-3.611-2.6-3.077S1791.3,594.172,1790.493,595.427Zm12.193,8.224c.7-.359,3.872-1.324,3.931.232.055,1.468-2.335,2.195-3.464,2.2a2.516,2.516,0,0,1-.645-.073C1801.234,605.681,1801.393,604.31,1802.686,603.651Zm3.221-10.31a2.319,2.319,0,0,1,.781-1.693,3.842,3.842,0,0,1,1.7-.857.9.9,0,0,1,.515-.017.662.662,0,0,1,.377.664c-.049,1.023-1.186,1.964-1.995,2.413a1.575,1.575,0,0,1-.742.213.6.6,0,0,1-.492-.221A.835.835,0,0,1,1805.906,593.341Zm-10.012,3.323a1.357,1.357,0,0,1,1.229,1.2,2.9,2.9,0,0,1-.442,1.787,6.837,6.837,0,0,1-1.887,2.2.78.78,0,0,1-1.216-.307,1.97,1.97,0,0,1-.1-1.334,7.247,7.247,0,0,1,1.03-2.547A1.845,1.845,0,0,1,1795.894,596.664Z" transform="translate(-1702.679 -567.15)" fill="url(#linear-gradient)"/>
      <path id="Path_654" data-name="Path 654" d="M1761.4,679.413s3.242-12.28,7.842-21.376,16.918-20.181,16.918-20.181l-.949-.243s-10.842,8.53-16.785,19.167a80.592,80.592,0,0,0-8,22.382Z" transform="translate(-1684.875 -607.319)" fill="#497a52"/>
    </g>
    <ellipse id="Ellipse_12" data-name="Ellipse 12" cx="146.746" cy="10.782" rx="146.746" ry="10.782" transform="translate(943.565 321.513)" fill="#f0e6e6"/>
    <ellipse id="Ellipse_13" data-name="Ellipse 13" cx="113.685" cy="6.171" rx="113.685" ry="6.171" transform="translate(968.264 325.627)" fill="#9384bc" opacity="0.4"/>
    <g id="Group_555" data-name="Group 555" transform="translate(1107.48 220.527)">
      <path id="Path_655" data-name="Path 655" d="M1582.258,767.638c0,1.176-21.23,2.13-47.417,2.13s-47.417-.954-47.417-2.13,21.229-2.13,47.417-2.13S1582.258,766.462,1582.258,767.638Z" transform="translate(-1487.424 -661.791)" fill="#9384bc"/>
      <g id="Group_552" data-name="Group 552" transform="translate(16.673)">
        <rect id="Rectangle_217" data-name="Rectangle 217" width="18.667" height="25.747" transform="translate(19.058 5.275)" fill="#b78dae"/>
        <rect id="Rectangle_218" data-name="Rectangle 218" width="28.064" height="25.747" transform="translate(37.726 5.276)" fill="url(#linear-gradient-2)"/>
        <path id="Path_656" data-name="Path 656" d="M1706.937,454.712a1.685,1.685,0,0,1-1.686,1.686h-9.33a1.685,1.685,0,1,1,0-3.371h9.33A1.685,1.685,0,0,1,1706.937,454.712Z" transform="translate(-1648.577 -443.489)" fill="#b78dae"/>
        <rect id="Rectangle_219" data-name="Rectangle 219" width="46.731" height="3.089" transform="translate(19.058 5.276)" fill="#5d2168" opacity="0.3"/>
        <g id="Group_551" data-name="Group 551">
          <path id="Path_657" data-name="Path 657" d="M1586.862,423.259l-6.426,27.973a1.481,1.481,0,0,1-1.429,1.171h-28.686a1.516,1.516,0,0,1-1.4-2l8.786-27.973a1.475,1.475,0,0,1,1.4-1.052h26.326A1.512,1.512,0,0,1,1586.862,423.259Z" transform="translate(-1547.011 -421.381)" fill="url(#linear-gradient-3)"/>
          <path id="Path_658" data-name="Path 658" d="M1580.752,423.259l-6.426,27.973a1.481,1.481,0,0,1-1.428,1.171h-28.686a1.517,1.517,0,0,1-1.4-2l8.786-27.973a1.474,1.474,0,0,1,1.4-1.052h26.326A1.512,1.512,0,0,1,1580.752,423.259Z" transform="translate(-1542.742 -421.381)" fill="#f0e6e6"/>
        </g>
      </g>
      <g id="Group_553" data-name="Group 553" transform="translate(23.437 63.291)">
        <rect id="Rectangle_220" data-name="Rectangle 220" width="39.77" height="9.074" rx="4.537" fill="url(#linear-gradient-3)"/>
        <rect id="Rectangle_221" data-name="Rectangle 221" width="39.77" height="9.074" rx="4.537" transform="translate(27.805)" fill="#f0e6e6"/>
        <rect id="Rectangle_222" data-name="Rectangle 222" width="24.298" height="33.514" transform="translate(3.073 9.074)" fill="#b78dae"/>
        <rect id="Rectangle_223" data-name="Rectangle 223" width="36.53" height="33.513" transform="translate(27.372 9.074)" fill="url(#linear-gradient-2)"/>
        <path id="Path_659" data-name="Path 659" d="M1706.8,682.084a2.194,2.194,0,0,1-2.194,2.194h-12.144a2.194,2.194,0,1,1,0-4.387h12.144A2.193,2.193,0,0,1,1706.8,682.084Z" transform="translate(-1652.568 -665.269)" fill="#b78dae"/>
        <rect id="Rectangle_224" data-name="Rectangle 224" width="60.828" height="4.021" transform="translate(3.073 9.074)" fill="#5d2168" opacity="0.3"/>
      </g>
      <g id="Group_554" data-name="Group 554" transform="translate(23.136 30.589)">
        <rect id="Rectangle_225" data-name="Rectangle 225" width="30.554" height="6.971" rx="3.485" fill="url(#linear-gradient-3)"/>
        <rect id="Rectangle_226" data-name="Rectangle 226" width="30.554" height="6.971" rx="3.485" transform="translate(21.362)" fill="#f0e6e6"/>
        <rect id="Rectangle_227" data-name="Rectangle 227" width="18.667" height="25.747" transform="translate(2.361 6.971)" fill="#b78dae"/>
        <rect id="Rectangle_228" data-name="Rectangle 228" width="28.064" height="25.747" transform="translate(21.028 6.971)" fill="url(#linear-gradient-2)"/>
        <path id="Path_660" data-name="Path 660" d="M1672.984,561.828a1.686,1.686,0,0,1-1.686,1.686h-9.329a1.685,1.685,0,1,1,0-3.371h9.329A1.685,1.685,0,0,1,1672.984,561.828Z" transform="translate(-1631.321 -548.91)" fill="#b78dae"/>
        <rect id="Rectangle_229" data-name="Rectangle 229" width="46.731" height="3.089" transform="translate(2.361 6.971)" fill="#5d2168" opacity="0.3"/>
      </g>
      <rect id="Rectangle_230" data-name="Rectangle 230" width="21.301" height="14.619" rx="7.31" transform="translate(53.69 48.687)" fill="#b78dae"/>
      <path id="Path_661" data-name="Path 661" d="M1718.442,584.4v11.654a1.483,1.483,0,0,1-1.482,1.483h-18.337a1.483,1.483,0,0,1-1.483-1.483V584.4a1.485,1.485,0,0,1,1.483-1.483h18.337A1.483,1.483,0,0,1,1718.442,584.4Z" transform="translate(-1633.933 -534.234)" fill="url(#linear-gradient-8)"/>
      <path id="Path_662" data-name="Path 662" d="M1719.569,584.4v11.654a1.483,1.483,0,0,1-1.482,1.483h-5.358v-7.862a4.163,4.163,0,0,0-4.164-4.162h-6.136a4.159,4.159,0,0,1-3.676-2.209,1.472,1.472,0,0,1,1-.386h18.337A1.483,1.483,0,0,1,1719.569,584.4Z" transform="translate(-1635.06 -534.234)" fill="#f0e6e6"/>
    </g>
    <g id="Group_563" data-name="Group 563" transform="translate(965.156 167.966)">
      <path id="Path_663" data-name="Path 663" d="M1182.522,396.858s32.052.358,40.993,19.115,12.368,27.648,21.973,31.86-6.087,28.877-31.209,23.929S1182.522,396.858,1182.522,396.858Z" transform="translate(-1132.094 -351.688)" fill="url(#linear-gradient-3)"/>
      <ellipse id="Ellipse_14" data-name="Ellipse 14" cx="55.428" cy="5.004" rx="55.428" ry="5.004" transform="translate(20.188 159.947)" fill="#9384bc"/>
      <path id="Path_664" data-name="Path 664" d="M1150.779,495.594a22.5,22.5,0,0,1-12.448,12.389,44.245,44.245,0,0,1-7.763,2.176h-.008c-21.4,4.379-69.426,5.943-89.914-5.464-23.289-12.963-31.538-42.92-20.787-74.3q.236-.685.483-1.374c8.41-23.375,32.726-33.3,45.1-36.925a70.457,70.457,0,0,1,7.428-1.809s8.461,21.221,17.24,37.479,42.774,42.675,54.923,50.129C1151.816,482.051,1153.242,489.137,1150.779,495.594Z" transform="translate(-1015.204 -347.095)" fill="url(#linear-gradient-3)"/>
      <path id="Path_665" data-name="Path 665" d="M1150.779,588.563a22.5,22.5,0,0,1-12.448,12.389,44.245,44.245,0,0,1-7.763,2.176h-.008c-21.4,4.379-69.426,5.943-89.914-5.464-23.289-12.963-31.538-42.92-20.787-74.3a53.412,53.412,0,0,0,.483,27.445c11.661,40.679,37.655,43.71,77.821,46.929C1115.007,599.084,1134.184,594.426,1150.779,588.563Z" transform="translate(-1015.204 -440.063)" fill="#b78dae" opacity="0.39"/>
      <path id="Path_666" data-name="Path 666" d="M1174.393,507.983a44.245,44.245,0,0,1-7.763,2.176h-.008s7.153-8.152,5.659-14.076-14.62-13.223-16.705-14.55-18.948,2.483-18.948,2.483,9.848,6.427,11.365,11.147,0,4.758-1.137,6.275,0,0-.758-5.355-10.047-11.517-11.374-11.327-5.308.379-14.015,0-13.422-5.014-13.422-5.014-3.843.844-4.789,1.528a21.331,21.331,0,0,0-5.464,6.66c1.022-2.939,2.828-6.963,5.464-8.571,5.122-3.122,2.273.089-1.6-6.692s-8.832-17.864-9.831-19.613-9.238,7.248-11.145,7.437,2.665-3.223,7.922-8.188,6.686-11.338,6.648-13.124-12.853,3.113-14.571,3.325-7,5.854-10.2,8.051-5.5-.379,2.935-5.689,15.168-5.78,20.738-6.484.971-5.837,0-10.62-3.221-20.542-3.221-20.542c.076-6.77,4.366-11.752,11.337-15.128a70.466,70.466,0,0,1,7.428-1.809s8.461,21.221,17.24,37.479,42.774,42.675,54.924,50.129S1188.2,502.21,1174.393,507.983Z" transform="translate(-1051.265 -347.095)" fill="#b78dae" opacity="0.9"/>
      <g id="Group_562" data-name="Group 562" transform="translate(37.938)">
        <path id="Path_667" data-name="Path 667" d="M1200.681,553.175s-5.566.432-12.518.722c-11.276.472-26.2.572-26.914-2.148-.138-.529.963-5.759,1.566-8.529.22-1.016.373-1.7.373-1.7l34.762-1.611Z" transform="translate(-1155.162 -451.625)" fill="url(#linear-gradient-11)"/>
        <path id="Path_668" data-name="Path 668" d="M1204.339,553.175s-5.566.432-12.518.722a103.874,103.874,0,0,1-11.179-3.849c-2.616-1.158-9.115-4.336-14.169-6.829.22-1.016.373-1.7.373-1.7l34.762-1.611Z" transform="translate(-1158.819 -451.625)" fill="#d33737" opacity="0.38"/>
        <path id="Path_669" data-name="Path 669" d="M1273.933,343.471c-4.37,10.435-7.131,10.044-7.131,10.044s5.435-6.363,5.551-11.9-4.425-11.188-4.425-11.188S1278.3,333.036,1273.933,343.471Z" transform="translate(-1228.91 -305.282)" fill="#5d2168"/>
        <g id="Group_556" data-name="Group 556" transform="translate(19.291 15.452)">
          <path id="Path_670" data-name="Path 670" d="M1205.086,351.248a4.761,4.761,0,0,1,.284.827c.045-.116.088-.234.133-.35A.361.361,0,0,0,1205.086,351.248Z" transform="translate(-1205.086 -335.275)" fill="#5d2168"/>
          <path id="Path_671" data-name="Path 671" d="M1205.086,351.248a4.761,4.761,0,0,1,.284.827c.045-.116.088-.234.133-.35A.361.361,0,0,0,1205.086,351.248Z" transform="translate(-1205.086 -335.275)" fill="#5d2168"/>
          <path id="Path_672" data-name="Path 672" d="M1282.384,298.54c.845,3.194,1.658,7.031.589,10.265a7.646,7.646,0,0,1-5.7,5.027c-.49.106-.682-.65-.191-.756a6.905,6.905,0,0,0,5.373-5.345c.633-2.913-.081-6.174-.829-9a.39.39,0,0,1,.756-.191Z" transform="translate(-1255.185 -298.258)" fill="#5d2168"/>
        </g>
        <path id="Path_673" data-name="Path 673" d="M1169.833,319.416s-16.4,10.885-9.5,20.874,19.378-5.861,19.378-5.861,3.07,13.686,10.7,11.66,2.612-11.516-.249-16.25S1169.833,319.416,1169.833,319.416Z" transform="translate(-1153.344 -297.587)" fill="#5d2168"/>
        <path id="Path_674" data-name="Path 674" d="M1204.277,259.455c-.912-5.973-7.172-8.186-7.172-8.186s-2.8-6.428-13.312-3.532-12.159,12.9-11.344,17.382.442,3.7.442,3.7-9.354-.18-9.844,4.609,4.324,10.48,8.514,9.009,5.672-4.038,5.672-4.038-.171.7,2.2,3,20.5-9.346,20.5-9.346S1205.19,265.429,1204.277,259.455Zm-39.051,16.459s-.652-3.115-.081-4.311,6.6-1.966,6.6-1.966C1168.595,271.215,1165.226,275.914,1165.226,275.914Z" transform="translate(-1156.401 -246.988)" fill="#5d2168"/>
        <path id="Path_675" data-name="Path 675" d="M1189.111,329.745s-6.61,3.329-7.909,8.513,3,4.734,3,4.734-6.531,1.251-3.518,6.981,23.513,3.73,24.322-1.716-1.7-12.781-1.7-12.781Z" transform="translate(-1168.191 -304.802)" fill="#3f1749"/>
        <path id="Path_676" data-name="Path 676" d="M1210.919,311.82s-.457.544.159,1.852c.061.131.133.271.218.419a3.081,3.081,0,0,0,2.064,1.729s1.839,1.873,2.8,3.117,3.562,7.854,3.562,7.854a7.28,7.28,0,0,1-2.042,1.346c1.549,3.921,2.434,7.818.281,8.6-4.59,1.657-19.081-11.752-19.081-11.752l-.078-.828c-3.219-2.958-3.674-6.152-1.969-7.028,2.584-1.327,5.545-7.236,5.545-7.236.277-1.962.421-3.225.421-3.225s-3.158-.309-3.553-2.011.1-5.56,1.71-7.082a1.659,1.659,0,0,1,2.874.591l0,0c.038.057.512.715,1.187-.005.7-.753.944-3.983,1.545-4.167s2.125-.064,6.994-2.738,5.443-3.477,5.443-3.477l.844.792c.846.791,2.931,3.253,2.931,3.253s1.348,16.486-3.562,18.9c-4.671,2.3-7.958,1.219-8.269,1.107C1210.937,311.825,1210.925,311.824,1210.919,311.82Z" transform="translate(-1179.349 -275.483)" fill="url(#linear-gradient-12)"/>
        <path id="Path_677" data-name="Path 677" d="M1245.609,369.4c-.616-1.308-.16-1.852-.16-1.852Z" transform="translate(-1213.879 -331.214)" fill="url(#linear-gradient-13)"/>
        <path id="Path_678" data-name="Path 678" d="M1246.245,324.405c-.01.524.264.947.612.946s.636-.426.646-.95-.264-.947-.612-.946S1246.255,323.882,1246.245,324.405Z" transform="translate(-1214.549 -300.409)" fill="#5d2168"/>
        <path id="Path_679" data-name="Path 679" d="M1275.374,328.236c-.009.523.265.947.612.946s.636-.426.646-.949-.264-.947-.612-.946S1275.383,327.713,1275.374,328.236Z" transform="translate(-1234.898 -303.085)" fill="#5d2168"/>
        <path id="Path_680" data-name="Path 680" d="M1262.043,339.158a2.816,2.816,0,0,0,.449-.038.843.843,0,0,0,.319-.107.878.878,0,0,0,.364-.7,2.129,2.129,0,0,0-.265-1.265,3.685,3.685,0,0,0-.231-.343,3.422,3.422,0,0,1-.2-.3,1.649,1.649,0,0,1-.186-1.1.246.246,0,0,0-.193-.291.25.25,0,0,0-.285.208,2.169,2.169,0,0,0,.245,1.452,3.81,3.81,0,0,0,.228.339,3.316,3.316,0,0,1,.2.3,1.612,1.612,0,0,1,.2.958.418.418,0,0,1-.122.306.436.436,0,0,1-.142.041,2.326,2.326,0,0,1-1.227-.129.246.246,0,0,0-.316.148.251.251,0,0,0,.136.326A2.788,2.788,0,0,0,1262.043,339.158Z" transform="translate(-1224.762 -308.486)" fill="#d33737" opacity="0.76"/>
        <path id="Path_681" data-name="Path 681" d="M1277.69,312.674a3.334,3.334,0,0,0-2.314-.375c-.345.068-.483-.479-.136-.548a3.917,3.917,0,0,1,2.735.431c.307.173.022.665-.285.492Z" transform="translate(-1234.664 -292.176)" fill="#5d2168"/>
        <path id="Path_682" data-name="Path 682" d="M1247.6,307.449l-.006-.09.131.245c-.773-.53-2.155-.231-2.962.075-.334.127-.466-.422-.136-.548a4.88,4.88,0,0,1,2.314-.31c.418.049,1.171.069,1.2.626.022.365-.525.364-.547,0Z" transform="translate(-1213.282 -288.767)" fill="#5d2168"/>
        <path id="Path_683" data-name="Path 683" d="M1256.676,354.869s-.818,1.518-2.036,1.606a2.324,2.324,0,0,1-2.121-1.594c-.074-.4-.21-.716-.069-.695a6.964,6.964,0,0,0,2.547.435C1256.055,354.491,1256.973,354.131,1256.676,354.869Z" transform="translate(-1218.841 -321.876)" fill="#d33737" opacity="0.76"/>
        <path id="Path_684" data-name="Path 684" d="M1229.689,356.362c.065.184,2.188,6.072,4.006,7.1.571.322.963.546,1.235.7l-.378-4.431a22.849,22.849,0,0,1-2.355-.941A7.458,7.458,0,0,1,1229.689,356.362Z" transform="translate(-1202.982 -323.397)" fill="#d33737" opacity="0.76"/>
        <path id="Path_685" data-name="Path 685" d="M1643.447,716.641s4.964,3.19,5.781,5.534-.548,4.828,3.074,5.741a47.815,47.815,0,0,0,13.1.807c3.627-.3,11.075,1.651,12.4,1.865s6.5-.27,6.633-.927a15,15,0,0,0,.128-2.081c.018-.284-.839-.242-1.88-.306a26.187,26.187,0,0,1-7.522-2.758c-1.855-1.227-8.765-2.635-9.972-3.079a58.041,58.041,0,0,1-5.815-2.722c-.361-.307-9.482-7.232-9.482-7.232S1642.947,715.516,1643.447,716.641Z" transform="translate(-1492.019 -571.489)" fill="url(#linear-gradient-14)"/>
        <path id="Path_686" data-name="Path 686" d="M1678.577,751.014s5.4,2.373,6.577,4.56.215,4.854,3.935,5.189a47.8,47.8,0,0,0,13.062-1.254c3.536-.86,11.2-.1,12.536-.1s6.375-1.285,6.406-1.954a15.028,15.028,0,0,0-.2-2.076c-.027-.283-.867-.107-1.9-.007a26.2,26.2,0,0,1-7.862-1.545c-2.024-.922-9.069-1.23-10.331-1.479a57.963,57.963,0,0,1-6.17-1.778c-.4-.247-10.5-5.658-10.5-5.658S1677.906,749.981,1678.577,751.014Z" transform="translate(-1516.543 -594.842)" fill="url(#linear-gradient-15)"/>
        <path id="Path_687" data-name="Path 687" d="M1436.177,305.014l3.656-19.682a1.661,1.661,0,0,1,1.633-1.357h6.087a1.661,1.661,0,0,1,1.628,1.988l-3.719,18.466a1.66,1.66,0,0,1-1.3,1.3l-6.023,1.215A1.661,1.661,0,0,1,1436.177,305.014Z" transform="translate(-1347.216 -272.827)" fill="url(#linear-gradient-16)"/>
        <path id="Path_688" data-name="Path 688" d="M1440.79,305.014l3.656-19.682a1.66,1.66,0,0,1,1.633-1.357h6.087a1.66,1.66,0,0,1,1.628,1.988l-3.719,18.466a1.66,1.66,0,0,1-1.3,1.3l-6.023,1.215A1.66,1.66,0,0,1,1440.79,305.014Z" transform="translate(-1350.439 -272.827)" fill="#5d2168"/>
        <path id="Path_689" data-name="Path 689" d="M1351.571,312.045a7.28,7.28,0,0,0,.332-1.177,2.023,2.023,0,0,0-.379-1.35s-2.148,3.941-2.741,4.883-2.946.574-2.946.574a11.114,11.114,0,0,0,2.592-1.579,13.852,13.852,0,0,0,2.148-4.171c0-.633-.189-.506-.5-.375s-1.771,2.713-2.339,3.408c-.557.681-4.087,1.668-4.22,1.7a25.932,25.932,0,0,0,2.135-2.021c.379-.506,1.9-1.2,1.391-1.958s-3.856,2.21-5.039,3.412a32.112,32.112,0,0,0-3.808,5.752c-.758,1.456-8.438,8.089-12.525,12.15s-9.877,10.124-11.274,10.882c-.734.4-4.895-.906-8.675-2.233-3.412-1.2-6.516-2.411-6.516-2.411L1297,348.6s7.845,2.025,13.289,3.358c2.569.627,4.6,1.1,5.029,1.136,1.327.106,8.436-3.9,12.133-9.016s13.714-20.506,14.851-21.644,6.571-2.844,6.95-3.283a46.889,46.889,0,0,0,2.654-6.51A.889.889,0,0,0,1351.571,312.045Zm-3.712,6.027a13.632,13.632,0,0,1-1.454-.315s1.284-.447,2.188-.83A4.884,4.884,0,0,1,1347.859,318.072Z" transform="translate(-1250.003 -290.131)" fill="url(#linear-gradient-11)"/>
        <path id="Path_690" data-name="Path 690" d="M1310.285,418.693c-5.445-1.333-13.289-3.358-13.289-3.358l2.2-11.064s3.1,1.215,6.516,2.411Z" transform="translate(-1250.003 -356.868)" fill="#d33737" opacity="0.49"/>
        <path id="Path_691" data-name="Path 691" d="M1275.314,403.339c-.006.083-.474-.078-1.225-.393-.442-.186-.984-.425-1.587-.7-3.647-1.653-9.553-4.569-9.553-4.569l-1.356-12.912-3.4-2.442c.235.091,12.631,4.95,17.559,6.918.648.26,1.168.468,1.513.61.224.091.373.153.44.184C1278.652,390.476,1275.346,402.91,1275.314,403.339Z" transform="translate(-1222.896 -341.536)" fill="url(#linear-gradient-18)"/>
        <path id="Path_692" data-name="Path 692" d="M1200.864,419.573a82.574,82.574,0,0,0,0,10.68l.885.286c-2.135.163-5.619.266-9.615.3-11.638.093-27.619-.4-27.27-1.666.525-1.914,2.823-6.688,3.5-11.007.571-3.609-.834-12.419-1.864-19.655-.2-1.42-.391-2.779-.546-4.027-.948-7.606-2.942-9.691-2.135-10.829s12.008-4.565,12.008-4.565,4.133,6.863,10.495,7.42,4.421-7.42,4.421-7.42,8.425,5.892,8.88,6.65,5,17.388,5,18.267a9.636,9.636,0,0,1-.37,1.528C1203.379,408.644,1201.184,415.573,1200.864,419.573Z" transform="translate(-1156.836 -339.273)" fill="url(#linear-gradient-19)"/>
        <g id="Group_557" data-name="Group 557" transform="translate(8.022 52.692)" opacity="0.71">
          <path id="Path_693" data-name="Path 693" d="M1203.7,449.423a82.575,82.575,0,0,0,0,10.68s-2.208-4.042-2.443-6.453-.495-8.83-.838-8.085-1.568,5.481-1.568,5.481a21.725,21.725,0,0,1-2.042-2.548c-.338-.671-7.648,0-7.648,0s-5.936,1.551-3.915,5.206c1.041,1.881,5.572,4.694,9.723,6.982-11.638.093-27.619-.4-27.27-1.666.525-1.914,2.823-6.688,3.5-11.007.571-3.609-.834-12.419-1.864-19.655l4.22-6.542s5.85,13.541,9.642,14.184c3.172.539,18.859-.32,23.9-.616C1206.215,438.494,1204.02,445.423,1203.7,449.423Z" transform="translate(-1167.693 -421.815)" fill="#b72963"/>
        </g>
        <path id="Path_694" data-name="Path 694" d="M1370.642,581.983c-.144.983-2.245,7.9-2.245,7.9s-88.2-41.012-95.415-41.853c-4.256-.5-15.839-3.442-24.633-5.779-6.125-1.627-10.9-2.957-10.9-2.957s11.233-.707,16.631-3.816c0,0,37.636-11.286,40.365-10.634s31.292,27.464,40.6,34.6c5.106,3.914,15.366,10.023,23.565,14.9h0C1365.358,578.356,1370.706,581.539,1370.642,581.983Z" transform="translate(-1208.405 -441.078)" fill="url(#linear-gradient-20)"/>
        <g id="Group_558" data-name="Group 558" transform="translate(39.943 94.96)" opacity="0.85">
          <path id="Path_695" data-name="Path 695" d="M1395.9,608c-.144.983-2.245,7.9-2.245,7.9s-88.2-41.011-95.415-41.853c-4.256-.5-15.839-3.442-24.633-5.78l3.748-3.426s41.342-3.479,43.438-2.656,34.058,24.079,45.407,30.822c6.526,3.874,12.645,6.552,17.67,7.353h0C1390.617,604.375,1395.966,607.558,1395.9,608Z" transform="translate(-1273.608 -562.058)" fill="#3554aa"/>
        </g>
        <path id="Path_696" data-name="Path 696" d="M1323.016,623.523c-.008,1.743-1.459,3.8-3,5.4-.156.163-.312.32-.467.471a14.489,14.489,0,0,1-2.317,1.874c-1.786,1.091-2.719-.173-9.159-1.931s-18.124-4-31.1-6.844-43.805-20.947-45.664-24.7-34.276,11.948-51.6,8.258c-8.642-1.84-13.907-9.842-17.013-17.4q-.231-.561-.447-1.121a66.452,66.452,0,0,1-3.615-13.607l8.234-.785c.911-.086,1.866-.175,2.851-.27l1.249-.12c8.938-.855,19.572-1.872,20.263-1.956.279-.033,2.908.033,6.828.178,11.125.411,32.646,1.447,40.346,2.578a10.808,10.808,0,0,1,2.63.591c.667.347,1.325.7,2.065,1.139,2.974,1.741,7.293,4.71,19.1,13.257,7.645,5.535,23.724,13.961,37.43,21.192,8.985,4.74,16.95,8.969,20.852,11.534C1322.1,622.335,1323.019,623.113,1323.016,623.523Z" transform="translate(-1153.344 -473.199)" fill="url(#linear-gradient-21)"/>
        <path id="Path_697" data-name="Path 697" d="M1328.531,632.927l-.138.549-.139.554-.328-.083c-14.64-3.77-40.213-17.026-60.792-27.693-13.777-7.14-26.793-13.887-29.071-13.668l-.034,0c-1.51.2-4.847.827-9.072,1.618-11.386,2.131-28.59,5.351-34.057,4.825-6.557-.629-12.3-7.113-13.905-9.086-1.938,2.014-5.485,2.858-8.793,3.176-.38.036-.755.067-1.127.089q-.231-.561-.447-1.121c3.728-.192,8.148-.964,9.924-3.377,1.853-2.518-.211-7.455-2.453-11.284l1.249-.12c2.106,3.681,4.178,8.639,2.361,11.71,1.239,1.536,7,8.277,13.3,8.881,5.308.511,22.418-2.692,33.74-4.811,4.241-.794,7.59-1.42,9.128-1.625a.529.529,0,0,1,.056-.008c2.508-.241,12.452,4.838,29.722,13.789C1288.338,615.963,1314.077,629.3,1328.531,632.927Z" transform="translate(-1161.723 -477.751)" fill="#88a3ed"/>
        <g id="Group_559" data-name="Group 559" transform="translate(5.291 99.946)" opacity="0.85">
          <path id="Path_698" data-name="Path 698" d="M1323.016,628.979c-.008,1.743-1.459,3.8-3,5.4-.156.163-.312.319-.467.471a14.489,14.489,0,0,1-2.317,1.874c-1.786,1.091-2.719-.173-9.159-1.931s-18.124-4-31.1-6.844-43.805-20.947-45.664-24.7-34.276,11.948-51.6,8.258c-8.642-1.84-13.907-9.842-17.013-17.4q-.231-.561-.447-1.121a66.453,66.453,0,0,1-3.615-13.607l8.234-.785c2.936,10.979,9.148,27.2,20.453,28.542,17.215,2.047,43.753-10.851,45.662-9.634s35.928,22.193,60.2,28.883c19.228,5.3,23.349,4.351,27.294.332C1322.1,627.791,1323.019,628.57,1323.016,628.979Z" transform="translate(-1158.635 -578.601)" fill="#3554aa"/>
        </g>
        <path id="Path_699" data-name="Path 699" d="M1154.981,474.195s7.021,20.323,9.108,21.716,19.726,4.08,20.674,4.515a10.23,10.23,0,0,1,2.4,2.372l9.983-.746a13.189,13.189,0,0,0-4.988-4.151c-3.035-1.306-6.26-2.611-7.114-2.872s-10.243-6.18-12.8-7.833-2.751-2.35-2.751-2.35l-3.183-12.283S1154.78,471.864,1154.981,474.195Z" transform="translate(-1150.789 -404.508)" fill="url(#linear-gradient-22)"/>
        <path id="Path_700" data-name="Path 700" d="M1256.188,565.987s-22.768,1.232-22.578,2.762l.19,1.531,19.692.268Z" transform="translate(-1205.72 -469.843)" fill="url(#linear-gradient-3)"/>
        <path id="Path_701" data-name="Path 701" d="M1287.185,494.285l4.93-32.124a2.22,2.22,0,0,1,2.194-1.883h43.318a2.219,2.219,0,0,1,2.158,2.738l-6.723,27.968a2.219,2.219,0,0,1-1.937,1.69L1289.6,496.83A2.219,2.219,0,0,1,1287.185,494.285Z" transform="translate(-1243.131 -395.994)" fill="#b78dae"/>
        <path id="Path_702" data-name="Path 702" d="M1294.836,494.285l4.931-32.124a2.219,2.219,0,0,1,2.194-1.883h43.318a2.219,2.219,0,0,1,2.158,2.738l-6.723,27.968a2.219,2.219,0,0,1-1.937,1.69l-41.526,4.155A2.219,2.219,0,0,1,1294.836,494.285Z" transform="translate(-1248.476 -395.994)" fill="url(#linear-gradient-24)"/>
        <g id="Group_560" data-name="Group 560" transform="translate(70.372 79.375)" opacity="0.48">
          <path id="Path_703" data-name="Path 703" d="M1377.757,511.944a1.6,1.6,0,1,1-1.595-1.6A1.6,1.6,0,0,1,1377.757,511.944Z" transform="translate(-1374.567 -510.349)" fill="#fff"/>
        </g>
        <path id="Path_704" data-name="Path 704" d="M1158.53,415.992c0,.008,0,.015,0,.023-.616,4.148-10.81,7.355-13.012,6.654a1.683,1.683,0,0,1-.736-.658,8.806,8.806,0,0,1-.823-1.494c-2.064-4.571-4.153-15.17-1.907-20.307,2.845-6.506,6.931-8.512,6.931-8.512,2.874-2.385,8.538,15.034,9.458,22.074A9.176,9.176,0,0,1,1158.53,415.992Z" transform="translate(-1141.079 -347.928)" fill="url(#linear-gradient-25)"/>
        <path id="Path_705" data-name="Path 705" d="M1165.2,467.675c0,.008,0,.015,0,.023a62.121,62.121,0,0,0-6.157,1.484,18.307,18.307,0,0,0-7.591,4.512,8.814,8.814,0,0,1-.823-1.494,52.443,52.443,0,0,1,7.193-4.25,29.573,29.573,0,0,1,7.289-2.495A9.17,9.17,0,0,1,1165.2,467.675Z" transform="translate(-1147.746 -399.61)" fill="url(#linear-gradient-26)"/>
        <path id="Path_706" data-name="Path 706" d="M1310.432,405.889l-3.175,13.092c-.442-.186-.984-.425-1.587-.7l3.249-13C1309.568,405.539,1310.087,405.747,1310.432,405.889Z" transform="translate(-1256.063 -357.571)" fill="url(#linear-gradient-26)"/>
        <path id="Path_707" data-name="Path 707" d="M1276.756,582.633c11.035,1.473,32.358,4.561,39.915,6.423-.079.048-5.226,3.064-7.166,3.064-1.956,0-37.824-6.569-38.7-8.112s3.611-1.509,3.611-1.509Z" transform="translate(-1231.627 -481.377)" fill="#88a3ed"/>
        <path id="Path_708" data-name="Path 708" d="M1485.836,620.15a22.113,22.113,0,0,1-2.951.407c-3.444.15-15.334-6.97-29.609-14.813s-26.337-16.443-27.92-17.22c-.857-.42,1.558-1.721,3.955-2.823,2.974,1.741,7.294,4.71,19.1,13.257C1456.051,604.493,1472.13,612.919,1485.836,620.15Z" transform="translate(-1339.553 -483.615)" fill="#88a3ed"/>
        <path id="Path_709" data-name="Path 709" d="M1213.472,327.067s-1.3-1.049-2,0-.854,3.686,0,4.134a1.981,1.981,0,0,0,1.71,0s-.117-1.253.286-1.122.6.065.6-.523S1214.2,327.457,1213.472,327.067Z" transform="translate(-1189.852 -302.606)" fill="#d33737" opacity="0.76"/>
        <g id="Group_561" data-name="Group 561" transform="translate(29.327 26.532)" opacity="0.5">
          <ellipse id="Ellipse_15" data-name="Ellipse 15" cx="1.951" cy="1.331" rx="1.951" ry="1.331" fill="#d33737"/>
          <path id="Path_710" data-name="Path 710" d="M1275.138,339.389a1.529,1.529,0,1,1-1.5-1.226A1.383,1.383,0,0,1,1275.138,339.389Z" transform="translate(-1261.967 -337.215)" fill="#d33737"/>
        </g>
        <path id="Path_711" data-name="Path 711" d="M1223.571,316.414l3.642.129c-.02.111-.039.223-.051.337a3.912,3.912,0,0,0,3.347,4.481,4.114,4.114,0,0,0,4.211-3.857c.011-.108.015-.215.018-.322a2.931,2.931,0,0,1,1.263-.142,1.165,1.165,0,0,1,.79.371,4.167,4.167,0,0,0-.193.883,3.63,3.63,0,0,0,3.158,4.126,3.817,3.817,0,0,0,3.952-3.539,3.63,3.63,0,0,0-3.158-4.126,3.7,3.7,0,0,0-3.61,2.274,1.65,1.65,0,0,0-.88-.364,3.2,3.2,0,0,0-1.325.125,3.826,3.826,0,0,0-3.362-3.766,4.031,4.031,0,0,0-4.077,3.144l-3.7-.131Zm13.392,1.909a3.435,3.435,0,0,1,3.549-3.192,3.267,3.267,0,0,1,2.833,3.719,3.436,3.436,0,0,1-3.55,3.192A3.267,3.267,0,0,1,1236.963,318.323Zm-9.436-1.413a3.732,3.732,0,0,1,3.808-3.51,3.549,3.549,0,0,1,3.023,4.074,3.732,3.732,0,0,1-3.808,3.51A3.549,3.549,0,0,1,1227.526,316.91Z" transform="translate(-1198.708 -293.112)" fill="#fff"/>
      </g>
    </g>
    <g id="Group_572" data-name="Group 572" transform="translate(958.301 261.837)">
      <g id="Group_565" data-name="Group 565" transform="translate(11.582)">
        <path id="Path_712" data-name="Path 712" d="M1038.471,606.946s2.615-4.747,1.635-19.311-5.771-26.44-5.969-28.446-1.086.435-1.684,2.709a121.105,121.105,0,0,0-1.522,12.349,7.458,7.458,0,0,0,.48,2.613l.68.474-.914,1.4s-.374,4.194-.274,13.278,1.9,13.151,1.9,13.151Z" transform="translate(-1030.887 -558.445)" fill="#99a35f"/>
        <path id="Path_713" data-name="Path 713" d="M1039.17,613.432l-3.394-2.015s-.485-1.7-.976-4.355c-.033-.177-.066-.359-.1-.544-.205-1.153-.4-2.463-.563-3.877l-.053-.481c-.145-1.385-.25-2.86-.286-4.378-.125-5.515,0-8.786.068-10.057.017-.307.031-.5.036-.576,0-.026,0-.04,0-.04l.746-1.115-.569-.388a5.888,5.888,0,0,1-.421-2.1c.012-.49.166-2.344.374-4.351.034-.322.068-.645.1-.97a43.568,43.568,0,0,1,.672-4.6c.475-1.823,1.008-5.391,1.191-3.777.115,1.008,1.821,5.758,3.318,12.036.043.187.087.373.132.563a83.8,83.8,0,0,1,1.911,11.552c.012.13.023.26.034.39q.041.512.071,1.01a51.717,51.717,0,0,1-.14,8.335q-.029.285-.061.564a42.567,42.567,0,0,1-1.195,6.407c-.055.2-.108.4-.161.577A20.763,20.763,0,0,1,1039.17,613.432Z" transform="translate(-1032.826 -566.101)" fill="#6a724a"/>
        <g id="Group_564" data-name="Group 564" transform="translate(1.043 11.219)" opacity="0.29">
          <path id="Path_714" data-name="Path 714" d="M1040.324,600.76a4.035,4.035,0,0,0-.775.276c-.54.259-1.079.468-1.469-.123a4.322,4.322,0,0,1-.427-1.472c-.147-.7-.269-1.414-.444-2.1-.081-.321-.2-.894-.5-1.048-.389-.2-.838.2-1.111.445a4.593,4.593,0,0,0-.69.768q.051-.482.1-.97a1.935,1.935,0,0,1,1.679-.841c1.041.227,1.135,2.047,1.317,2.913a7.655,7.655,0,0,0,.357,1.615c.308.626.841.368,1.339.154a4.634,4.634,0,0,1,.489-.176C1040.235,600.384,1040.279,600.57,1040.324,600.76Z" transform="translate(-1034.738 -595.669)" fill="#351d1f"/>
          <path id="Path_715" data-name="Path 715" d="M1041.949,636.485c-.369-.684-.691-1.4-1.019-2.109-.261-.565-.523-1.133-.831-1.667-.225-.392-.514-.807-1-.53-.16.091-.291.365-.417.512a1.318,1.318,0,0,1-1.678.5,2.494,2.494,0,0,1-1.144-2c-.12-.724-.146-1.652-.725-2.128a.99.99,0,0,0-.785-.212c.017-.307.031-.5.036-.576a1.689,1.689,0,0,1,1.706,1.35,15.351,15.351,0,0,1,.319,1.7c.236,1.089,1.073,1.984,2,.886.448-.529.949-1.1,1.586-.6a5.068,5.068,0,0,1,1.032,1.713c.285.58.545,1.175.822,1.758.012.13.023.26.034.39C1041.906,635.816,1041.929,636.152,1041.949,636.485Z" transform="translate(-1034.347 -618.443)" fill="#351d1f"/>
          <path id="Path_716" data-name="Path 716" d="M1042.255,677.745c-.207.03-.424.08-.649.136a2.388,2.388,0,0,1-2.127-.174c-.824-.682-.16-2.115-1.319-2.5-.8-.263-1.985.527-3.036.917l-.053-.481a10.863,10.863,0,0,1,2.341-1.041,1.828,1.828,0,0,1,1.787.705,2.567,2.567,0,0,1,.272,1.059c.073.49.15.877.646,1.055a2.039,2.039,0,0,0,1.009.013c.395-.073.794-.2,1.189-.257Q1042.286,677.467,1042.255,677.745Z" transform="translate(-1034.854 -650.804)" fill="#351d1f"/>
          <path id="Path_717" data-name="Path 717" d="M1042.327,697.253a2.822,2.822,0,0,1-.482-.09,4.749,4.749,0,0,1-2.538-2.254c-.472-.741-1.042-1.843-2.016-1.84-.026,0-.053,0-.079,0-.033-.178-.066-.359-.1-.544a1.712,1.712,0,0,1,.643.051c1.606.438,2.064,2.693,3.364,3.616a2.55,2.55,0,0,0,1.365.481C1042.432,696.879,1042.379,697.071,1042.327,697.253Z" transform="translate(-1036.281 -663.328)" fill="#351d1f"/>
        </g>
      </g>
      <g id="Group_567" data-name="Group 567" transform="translate(17.595 8.029)">
        <path id="Path_718" data-name="Path 718" d="M1054.735,626.1s3.942-2.834,8.752-14.992,5.5-23.608,6.116-25.307-1.045-.065-2.4,1.544a108.48,108.48,0,0,0-5.982,9.4,6.684,6.684,0,0,0-.617,2.3l.368.645-1.277.778s-1.916,3.249-5.33,10.636-3.523,11.369-3.523,11.369Z" transform="translate(-1050.838 -585.084)" fill="#99a35f"/>
        <path id="Path_719" data-name="Path 719" d="M1057.365,630.961l-1.97-2.936s.262-1.562.886-3.9c.042-.156.085-.316.131-.477.278-1.012.622-2.147,1.036-3.352l.143-.41c.416-1.176.9-2.41,1.453-3.651,2.021-4.509,3.38-7.107,3.924-8.109.132-.242.216-.391.25-.452.013-.02.018-.031.018-.031l1.033-.615-.312-.533a5.274,5.274,0,0,1,.469-1.864c.2-.392,1.037-1.832,1.976-3.375q.227-.371.458-.744a38.939,38.939,0,0,1,2.311-3.459c1.086-1.292,2.889-3.973,2.416-2.6-.3.859-.742,5.358-1.947,11.013q-.056.25-.109.506a75.088,75.088,0,0,1-2.9,10.08q-.061.165-.123.328-.163.43-.331.844a46.31,46.31,0,0,1-3.32,6.689q-.133.22-.266.433a38.16,38.16,0,0,1-3.431,4.723c-.122.143-.24.278-.352.405A18.618,18.618,0,0,1,1057.365,630.961Z" transform="translate(-1054.022 -591.365)" fill="#6a724a"/>
        <g id="Group_566" data-name="Group 566" transform="translate(2.259 8.91)" opacity="0.29">
          <path id="Path_720" data-name="Path 720" d="M1095.044,620.348a3.6,3.6,0,0,0-.734-.075c-.537,0-1.053-.036-1.141-.665a3.867,3.867,0,0,1,.221-1.355c.15-.623.327-1.248.45-1.872.058-.291.184-.8,0-1.04-.239-.31-.757-.157-1.07-.068a4.1,4.1,0,0,0-.854.356q.227-.371.458-.744a1.734,1.734,0,0,1,1.682-.035c.755.585.13,2.092-.056,2.863a6.832,6.832,0,0,0-.333,1.444c.008.624.538.621,1.023.639a4.157,4.157,0,0,1,.464.046Q1095.1,620.093,1095.044,620.348Z" transform="translate(-1081.794 -614.647)" fill="#351d1f"/>
          <path id="Path_721" data-name="Path 721" d="M1083.73,648.753c-.036-.7-.02-1.4-.013-2.1.006-.557.013-1.118-.031-1.668-.031-.4-.1-.851-.607-.815a2.13,2.13,0,0,0-.534.254,1.181,1.181,0,0,1-1.549-.241,2.233,2.233,0,0,1-.156-2.058c.181-.632.517-1.392.232-2a.885.885,0,0,0-.553-.474c.132-.242.216-.391.25-.452a1.513,1.513,0,0,1,.861,1.749,13.673,13.673,0,0,1-.4,1.5c-.228.972.1,2.018,1.274,1.485.566-.256,1.192-.525,1.513.126a4.536,4.536,0,0,1,.175,1.783c.008.578-.011,1.16-.011,1.738q-.061.165-.123.328Q1083.9,648.339,1083.73,648.753Z" transform="translate(-1073.832 -631.801)" fill="#351d1f"/>
          <path id="Path_722" data-name="Path 722" d="M1067.35,684.072c-.179-.055-.373-.1-.577-.14a2.138,2.138,0,0,1-1.653-.959c-.4-.868.684-1.772-.106-2.526-.544-.52-1.809-.338-2.809-.426l.143-.41a9.714,9.714,0,0,1,2.294.059,1.637,1.637,0,0,1,1.174,1.258,2.3,2.3,0,0,1-.187.962c-.129.424-.216.767.116,1.1a1.825,1.825,0,0,0,.811.4c.348.092.719.147,1.061.25Q1067.483,683.859,1067.35,684.072Z" transform="translate(-1061.038 -659.997)" fill="#351d1f"/>
          <path id="Path_723" data-name="Path 723" d="M1060.862,698.032a2.541,2.541,0,0,1-.355-.258,4.252,4.252,0,0,1-1.186-2.8c-.1-.781-.135-1.892-.923-2.264a.7.7,0,0,0-.065-.029c.042-.156.085-.316.131-.477a1.523,1.523,0,0,1,.5.289c1.131.972.633,2.972,1.329,4.219a2.285,2.285,0,0,0,.919.914C1061.092,697.769,1060.974,697.9,1060.862,698.032Z" transform="translate(-1058.334 -668.829)" fill="#351d1f"/>
        </g>
      </g>
      <g id="Group_569" data-name="Group 569" transform="translate(0 8.065)">
        <path id="Path_724" data-name="Path 724" d="M1012.3,629.844s1-5.327-4.477-18.856-13.739-23.316-14.552-25.16-.9.752-.754,3.1a121.233,121.233,0,0,0,2.41,12.207,7.46,7.46,0,0,0,1.272,2.333l.794.238-.433,1.612s.955,4.1,3.886,12.7,5.911,11.9,5.911,11.9Z" transform="translate(-992.458 -585.203)" fill="#c4e57c"/>
        <path id="Path_725" data-name="Path 725" d="M1013.892,636.345l-3.853-.854s-.991-1.464-2.287-3.832c-.087-.158-.175-.32-.262-.486-.555-1.032-1.151-2.214-1.745-3.507l-.2-.441c-.57-1.27-1.131-2.639-1.639-4.07-1.841-5.2-2.744-8.346-3.076-9.575-.08-.3-.126-.482-.146-.558-.005-.026-.009-.039-.009-.039l.361-1.293-.662-.19a5.887,5.887,0,0,1-1.057-1.867c-.142-.469-.574-2.279-1-4.25-.068-.316-.137-.634-.2-.954a43.487,43.487,0,0,1-.8-4.575c-.118-1.88-.726-5.436-.048-3.959.423.922,3.528,4.9,6.91,10.4.1.164.2.328.3.493a83.787,83.787,0,0,1,5.423,10.377c.052.12.1.24.154.359.133.316.26.627.383.937a51.694,51.694,0,0,1,2.47,7.962q.062.28.118.555a42.579,42.579,0,0,1,.866,6.46c.011.209.02.409.028.6A20.74,20.74,0,0,1,1013.892,636.345Z" transform="translate(-995.595 -592.427)" fill="url(#linear-gradient-28)"/>
        <g id="Group_568" data-name="Group 568" transform="translate(2.514 10.673)" opacity="0.45">
          <path id="Path_726" data-name="Path 726" d="M1007.164,624.3a4.027,4.027,0,0,0-.65.5c-.432.415-.879.782-1.434.342a4.314,4.314,0,0,1-.865-1.265c-.359-.618-.7-1.259-1.079-1.859-.176-.28-.467-.788-.8-.839-.431-.067-.732.456-.917.769a4.572,4.572,0,0,0-.416.945q-.1-.475-.2-.954c.3-.679.739-1.263,1.332-1.323,1.06-.109,1.717,1.59,2.16,2.356a7.679,7.679,0,0,0,.843,1.423c.488.5.914.087,1.32-.272a4.666,4.666,0,0,1,.41-.32C1006.962,623.971,1007.062,624.135,1007.164,624.3Z" transform="translate(-1000.798 -620.615)" fill="#6a724a"/>
          <path id="Path_727" data-name="Path 727" d="M1019.091,658.691c-.565-.535-1.094-1.116-1.627-1.686-.424-.454-.851-.913-1.31-1.324-.336-.3-.74-.606-1.118-.19a2.374,2.374,0,0,0-.237.616,1.318,1.318,0,0,1-1.438,1,2.5,2.5,0,0,1-1.711-1.542c-.34-.65-.654-1.523-1.353-1.795a.988.988,0,0,0-.812.043c-.08-.3-.126-.482-.146-.558a1.689,1.689,0,0,1,2.042.75,15.271,15.271,0,0,1,.834,1.517c.565.961,1.638,1.55,2.173.218.26-.643.558-1.342,1.32-1.064a5.069,5.069,0,0,1,1.515,1.305c.451.462.885.946,1.33,1.413.052.12.1.24.154.359C1018.84,658.069,1018.968,658.381,1019.091,658.691Z" transform="translate(-1006.765 -643.332)" fill="#6a724a"/>
          <path id="Path_728" data-name="Path 728" d="M1032.946,695.923c-.187.093-.377.209-.574.331a2.387,2.387,0,0,1-2.075.5c-1-.39-.813-1.959-2.032-1.959-.84,0-1.721,1.121-2.6,1.819l-.2-.441c.643-.53,1.185-1.4,1.9-1.719a1.828,1.828,0,0,1,1.918.112,2.575,2.575,0,0,1,.59.922c.222.442.416.787.942.8a2.041,2.041,0,0,0,.963-.3c.352-.193.694-.435,1.049-.615Q1032.889,695.649,1032.946,695.923Z" transform="translate(-1018.032 -672.047)" fill="#6a724a"/>
          <path id="Path_729" data-name="Path 729" d="M1038.35,716.259a2.792,2.792,0,0,1-.486.065,4.748,4.748,0,0,1-3.115-1.349c-.68-.557-1.566-1.425-2.49-1.119-.025.008-.051.017-.074.027-.087-.158-.175-.32-.262-.486a1.707,1.707,0,0,1,.628-.153c1.662-.085,2.8,1.915,4.325,2.385a2.549,2.549,0,0,0,1.447.031C1038.333,715.87,1038.342,716.07,1038.35,716.259Z" transform="translate(-1022.542 -685.325)" fill="#6a724a"/>
        </g>
      </g>
      <g id="Group_571" data-name="Group 571" transform="translate(14.852 1.595)">
        <path id="Path_730" data-name="Path 730" d="M1042.156,610.644s-1.728-5.138,1.831-19.293,10.388-24.989,10.94-26.928.991.622,1.174,2.965a121.035,121.035,0,0,1-.7,12.422,7.455,7.455,0,0,1-.938,2.486l-.754.345.651,1.537s-.379,4.194-2.1,13.115-4.212,12.6-4.212,12.6Z" transform="translate(-1041.737 -563.739)" fill="#c4e57c"/>
        <path id="Path_731" data-name="Path 731" d="M1046.616,617.218l3.7-1.378s.78-1.587,1.736-4.111c.064-.169.129-.341.192-.518.407-1.1.835-2.352,1.245-3.714l.138-.464c.389-1.337.756-2.77,1.061-4.257,1.105-5.4,1.565-8.645,1.725-9.908.038-.306.059-.495.068-.573,0-.026,0-.039,0-.039l-.536-1.231.63-.28a5.89,5.89,0,0,0,.789-2c.075-.484.254-2.336.407-4.348q.036-.484.07-.973a43.411,43.411,0,0,0,.158-4.641c-.143-1.879-.031-5.484-.5-3.928-.292.971-2.818,5.341-5.409,11.252-.075.176-.152.352-.23.53a83.792,83.792,0,0,0-3.938,11.026c-.036.126-.069.252-.1.377q-.131.5-.25.981a51.654,51.654,0,0,0-1.347,8.227q-.023.286-.041.566a42.564,42.564,0,0,0,.034,6.517c.018.209.036.408.055.6A20.828,20.828,0,0,0,1046.616,617.218Z" transform="translate(-1044.769 -571.242)" fill="url(#linear-gradient-29)"/>
        <g id="Group_570" data-name="Group 570" transform="translate(1.415 11.059)" opacity="0.45">
          <path id="Path_732" data-name="Path 732" d="M1065.273,604.772a3.988,3.988,0,0,1,.714.41c.486.351.979.653,1.468.141a4.319,4.319,0,0,0,.682-1.372c.27-.662.516-1.344.812-1.991.136-.3.354-.845.679-.942.418-.126.788.35,1.014.635a4.592,4.592,0,0,1,.542.879q.036-.484.07-.973c-.393-.63-.907-1.148-1.5-1.127-1.065.038-1.481,1.812-1.814,2.632a7.643,7.643,0,0,1-.639,1.526c-.414.561-.893.212-1.344-.087a4.658,4.658,0,0,0-.45-.261C1065.428,604.418,1065.351,604.594,1065.273,604.772Z" transform="translate(-1059.594 -600.432)" fill="#6a724a"/>
          <path id="Path_733" data-name="Path 733" d="M1051.037,640.2c.485-.607.929-1.256,1.378-1.894.357-.509.717-1.021,1.115-1.492.291-.345.649-.7,1.082-.343.141.118.221.411.319.578a1.318,1.318,0,0,0,1.562.79,2.494,2.494,0,0,0,1.482-1.763c.247-.691.438-1.6,1.093-1.964a.988.988,0,0,1,.81-.069c.038-.306.059-.495.068-.573a1.689,1.689,0,0,0-1.919,1.025,15.324,15.324,0,0,0-.617,1.618c-.427,1.03-1.409,1.762-2.122.516-.346-.6-.738-1.252-1.454-.871a5.07,5.07,0,0,0-1.32,1.5c-.383.52-.746,1.059-1.122,1.583-.036.126-.069.252-.1.377Q1051.155,639.711,1051.037,640.2Z" transform="translate(-1049.649 -623.47)" fill="#6a724a"/>
          <path id="Path_734" data-name="Path 734" d="M1046.432,679.7c.2.066.4.154.615.249a2.387,2.387,0,0,0,2.124.207c.932-.524.534-2.052,1.742-2.221.831-.117,1.859.872,2.824,1.443l.138-.464c-.71-.437-1.367-1.221-2.118-1.441a1.828,1.828,0,0,0-1.884.376,2.568,2.568,0,0,0-.457.994c-.159.469-.3.836-.823.923a2.039,2.039,0,0,1-1-.167c-.376-.143-.747-.335-1.124-.465Q1046.451,679.419,1046.432,679.7Z" transform="translate(-1046.432 -654.181)" fill="#6a724a"/>
          <path id="Path_735" data-name="Path 735" d="M1046.6,699.912a2.838,2.838,0,0,0,.49,0,4.746,4.746,0,0,0,2.9-1.766c.6-.646,1.354-1.627,2.311-1.452.026,0,.053.01.078.016.064-.169.129-.341.192-.518a1.706,1.706,0,0,0-.642-.064c-1.659.145-2.51,2.283-3.954,2.959a2.55,2.55,0,0,1-1.429.23C1046.564,699.524,1046.583,699.723,1046.6,699.912Z" transform="translate(-1046.512 -667.28)" fill="#6a724a"/>
        </g>
      </g>
      <path id="Path_736" data-name="Path 736" d="M1022.2,710.221c.049,1.811.143,4.619.3,7.642a110.074,110.074,0,0,0,1.068,11.629c.3,1.7.659,2.835,1.089,3.007,2.091.836,6.583.94,6.583.94s4.492-.1,6.581-.94a1.131,1.131,0,0,0,.481-.636,23.378,23.378,0,0,0,1.035-5.446c.584-5.3.846-12.655.943-16.2a2.008,2.008,0,0,0-2.008-2.063h-14.061A2.01,2.01,0,0,0,1022.2,710.221Z" transform="translate(-1013.233 -663.036)" fill="url(#linear-gradient-30)"/>
      <path id="Path_737" data-name="Path 737" d="M1026.738,729.492c.3,1.7.659,2.835,1.09,3.007,2.09.836,6.582.94,6.582.94s4.492-.1,6.581-.94a1.132,1.132,0,0,0,.481-.636,23.4,23.4,0,0,0,1.035-5.446c.584-5.3.846-12.655.943-16.2a2.008,2.008,0,0,0-2.009-2.063h-1.735l-2.941,21.334Z" transform="translate(-1016.406 -663.036)" fill="#ced9fd"/>
    </g>
    <g id="Group_574" data-name="Group 574" transform="translate(1024.136 306.584)">
      <ellipse id="Ellipse_16" data-name="Ellipse 16" cx="35.564" cy="1.597" rx="35.564" ry="1.597" transform="translate(0 30.32)" fill="#9384bc"/>
      <g id="Group_573" data-name="Group 573" transform="translate(17.578 0)">
        <rect id="Rectangle_231" data-name="Rectangle 231" width="29.828" height="6.805" rx="3.403" fill="url(#linear-gradient-3)"/>
        <rect id="Rectangle_232" data-name="Rectangle 232" width="29.828" height="6.805" rx="3.403" transform="translate(20.855)" fill="#f0e6e6"/>
        <rect id="Rectangle_233" data-name="Rectangle 233" width="18.224" height="25.136" transform="translate(2.305 6.805)" fill="#b78dae"/>
        <rect id="Rectangle_234" data-name="Rectangle 234" width="27.398" height="25.136" transform="translate(20.529 6.806)" fill="url(#linear-gradient-2)"/>
        <path id="Path_738" data-name="Path 738" d="M1375.43,744.943a1.645,1.645,0,0,1-1.646,1.646h-9.108a1.645,1.645,0,1,1,0-3.291h9.108A1.645,1.645,0,0,1,1375.43,744.943Z" transform="translate(-1334.755 -732.331)" fill="#b78dae"/>
        <rect id="Rectangle_235" data-name="Rectangle 235" width="45.622" height="3.016" transform="translate(2.305 6.806)" fill="#5d2168" opacity="0.3"/>
      </g>
    </g>
    <g id="Group_578" data-name="Group 578" transform="translate(1114.233 159.372)">
      <g id="Group_577" data-name="Group 577" transform="translate(0 8.403)">
        <g id="Group_575" data-name="Group 575">
          <path id="Path_739" data-name="Path 739" d="M1543.35,273.409h-24.1a2.03,2.03,0,0,1-1.932-1.409l-7.388-22.994a2.03,2.03,0,0,1,1.932-2.651h38.487a2.03,2.03,0,0,1,1.942,2.621l-7,22.994A2.03,2.03,0,0,1,1543.35,273.409ZM1520.2,272.1h22.18a2.03,2.03,0,0,0,1.942-1.439l6.2-20.382a2.03,2.03,0,0,0-1.942-2.621h-34.932a2.03,2.03,0,0,0-1.932,2.651l6.548,20.382A2.03,2.03,0,0,0,1520.2,272.1Z" transform="translate(-1509.831 -246.355)" fill="url(#linear-gradient-3)"/>
          <path id="Path_740" data-name="Path 740" d="M1564.529,340.51h-26.777V339.2h25.471v-5.252h1.306Z" transform="translate(-1529.337 -307.551)" fill="url(#linear-gradient-3)"/>
          <circle id="Ellipse_17" data-name="Ellipse 17" cx="4.898" cy="4.898" r="4.898" transform="translate(5.244 39.976) rotate(-76.717)" fill="#b78dae"/>
          <circle id="Ellipse_18" data-name="Ellipse 18" cx="2.738" cy="2.738" r="2.738" transform="matrix(0.23, -0.973, 0.973, 0.23, 7.844, 38.369)" fill="url(#linear-gradient-3)"/>
          <circle id="Ellipse_19" data-name="Ellipse 19" cx="4.898" cy="4.898" r="4.898" transform="translate(26.361 39.976) rotate(-76.717)" fill="#b78dae"/>
          <circle id="Ellipse_20" data-name="Ellipse 20" cx="2.738" cy="2.738" r="2.738" transform="translate(28.677 34.852) rotate(-22.5)" fill="url(#linear-gradient-3)"/>
        </g>
        <g id="Group_576" data-name="Group 576" transform="translate(2.152 0.467)">
          <rect id="Rectangle_236" data-name="Rectangle 236" width="1" height="26.679" transform="matrix(0.967, -0.253, 0.253, 0.967, 6.639, 0.253)" fill="url(#linear-gradient-37)"/>
          <rect id="Rectangle_237" data-name="Rectangle 237" width="1" height="25.895" transform="translate(17.745 0.168) rotate(-4.705)" fill="url(#linear-gradient-38)"/>
          <rect id="Rectangle_238" data-name="Rectangle 238" width="25.98" height="0.999" transform="translate(26.62 25.878) rotate(-83.409)" fill="url(#linear-gradient-39)"/>
          <rect id="Rectangle_239" data-name="Rectangle 239" width="37.61" height="1" transform="translate(0 7.124)" fill="url(#linear-gradient-3)"/>
          <rect id="Rectangle_240" data-name="Rectangle 240" width="30.863" height="1" transform="translate(3.499 18.494)" fill="url(#linear-gradient-3)"/>
        </g>
      </g>
      <circle id="Ellipse_21" data-name="Ellipse 21" cx="7.892" cy="7.892" r="7.892" transform="translate(33.233)" fill="#f0e6e6"/>
    </g>
    <g id="Group_584" data-name="Group 584" transform="translate(1061.86 158.744)">
      <rect id="Rectangle_241" data-name="Rectangle 241" width="29.593" height="17.026" rx="4.035" transform="translate(0 0)" fill="url(#linear-gradient-42)"/>
      <path id="Path_741" data-name="Path 741" d="M1347.287,228.393a2.078,2.078,0,1,1,0-3.507,2.078,2.078,0,0,0,0,3.507Z" transform="translate(-1341.673 -222.099)" fill="#e8eefe"/>
      <g id="Group_579" data-name="Group 579" transform="translate(4.652 2.787)" opacity="0.44">
        <path id="Path_742" data-name="Path 742" d="M1353.419,227.392a1.141,1.141,0,1,1-.963-1.753A2.075,2.075,0,0,1,1353.419,227.392Z" transform="translate(-1351.493 -225.638)" fill="#91b2e2"/>
      </g>
      <g id="Group_580" data-name="Group 580" transform="translate(5.614 2.463)" opacity="0.85">
        <path id="Path_743" data-name="Path 743" d="M1357.879,226.64a2.078,2.078,0,0,1-3.192,1.753,2.078,2.078,0,0,0,0-3.507,2.078,2.078,0,0,1,3.192,1.753Z" transform="translate(-1354.687 -224.562)" fill="#3554aa"/>
      </g>
      <g id="Group_581" data-name="Group 581" transform="translate(2.828 11.245)">
        <rect id="Rectangle_242" data-name="Rectangle 242" width="5.215" height="1.044" fill="#e8eefe"/>
        <rect id="Rectangle_243" data-name="Rectangle 243" width="5.215" height="1.044" transform="translate(6.189)" fill="#e8eefe"/>
        <rect id="Rectangle_244" data-name="Rectangle 244" width="5.215" height="1.044" transform="translate(12.378)" fill="#e8eefe"/>
        <rect id="Rectangle_245" data-name="Rectangle 245" width="5.215" height="1.044" transform="translate(18.568)" fill="#e8eefe"/>
      </g>
      <g id="Group_582" data-name="Group 582" transform="translate(0 14.488)" opacity="0.85">
        <path id="Path_744" data-name="Path 744" d="M1365.652,264.463v1.321a1.217,1.217,0,0,1-1.216,1.216h-27.161a1.216,1.216,0,0,1-1.216-1.216v-1.321Z" transform="translate(-1336.059 -264.463)" fill="#3554aa"/>
      </g>
      <g id="Group_583" data-name="Group 583" transform="translate(21.07 3.205)" opacity="0.85">
        <rect id="Rectangle_246" data-name="Rectangle 246" width="4.392" height="2.094" fill="#3554aa"/>
      </g>
    </g>
  </g>
</svg>
