<svg xmlns="http://www.w3.org/2000/svg" width="31" height="31" viewBox="0 0 31 31">
  <g id="Group_657" data-name="Group 657" transform="translate(-153.653 -57.867)">
    <g id="Group_625" data-name="Group 625" transform="translate(157.634 59.737)">
      <g id="Group_616" data-name="Group 616" transform="translate(0 23.401)">
        <path id="Path_763" data-name="Path 763" d="M196.184,317.285a2.438,2.438,0,0,1-.7-.1,1.782,1.782,0,0,1-.613-.318,1.013,1.013,0,0,1-.354-.533v-.005a.471.471,0,0,1-.011-.089.374.374,0,0,1,.109-.268.4.4,0,0,1,.522-.036.365.365,0,0,1,.137.207.338.338,0,0,0,.133.164,1.017,1.017,0,0,0,.327.156,1.589,1.589,0,0,0,.454.062,1.671,1.671,0,0,0,.607-.106c.156-.061.229-.15.229-.281s-.072-.219-.226-.282a2.793,2.793,0,0,0-.668-.168,2.636,2.636,0,0,1-1.017-.338.962.962,0,0,1-.2-1.4,1.261,1.261,0,0,1,.553-.357,2.232,2.232,0,0,1,.719-.113,2.009,2.009,0,0,1,.932.211,1.168,1.168,0,0,1,.568.57v0a.412.412,0,0,1,.03.146.384.384,0,0,1-.236.348h0a.412.412,0,0,1-.149.031.375.375,0,0,1-.219-.07.423.423,0,0,1-.141-.169v0a.462.462,0,0,0-.284-.215,1.514,1.514,0,0,0-1.035,0c-.125.05-.178.121-.171.229v.006c0,.062.019.153.187.217a2.556,2.556,0,0,0,.579.138h0a3.046,3.046,0,0,1,1.1.368.911.911,0,0,1,.455.827.971.971,0,0,1-.23.652,1.352,1.352,0,0,1-.6.391A2.417,2.417,0,0,1,196.184,317.285Z" transform="translate(-194.502 -313.469)"/>
        <path id="Path_764" data-name="Path 764" d="M235.364,318.038a.387.387,0,0,1-.279-.113.362.362,0,0,1-.113-.267v-.9h-1.44v.9a.365.365,0,0,1-.11.266.4.4,0,0,1-.557,0,.361.361,0,0,1-.113-.267v-2.883a.362.362,0,0,1,.113-.267.4.4,0,0,1,.557,0,.365.365,0,0,1,.11.266V316h1.44v-1.222a.362.362,0,0,1,.113-.267.4.4,0,0,1,.557,0,.365.365,0,0,1,.11.266v2.883a.365.365,0,0,1-.11.266A.384.384,0,0,1,235.364,318.038Z" transform="translate(-229 -314.298)"/>
        <path id="Path_765" data-name="Path 765" d="M268.943,317.241a1.952,1.952,0,0,1-1.681-.948,1.843,1.843,0,0,1-.261-.959,1.822,1.822,0,0,1,.264-.955,1.966,1.966,0,0,1,.709-.694,1.914,1.914,0,0,1,.97-.259,1.952,1.952,0,0,1,1.681.948,1.894,1.894,0,0,1,0,1.919,1.944,1.944,0,0,1-1.681.948Zm0-3.049a1.147,1.147,0,0,0-.576.152,1.182,1.182,0,0,0-.427.414,1.089,1.089,0,0,0-.159.577,1.1,1.1,0,0,0,.157.577,1.174,1.174,0,0,0,2.01,0,1.1,1.1,0,0,0,.157-.577,1.089,1.089,0,0,0-.159-.577,1.181,1.181,0,0,0-.427-.414A1.146,1.146,0,0,0,268.943,314.192Z" transform="translate(-259.89 -313.426)"/>
        <path id="Path_766" data-name="Path 766" d="M311.611,318.038a.384.384,0,0,1-.278-.114.365.365,0,0,1-.11-.266v-2.883a.366.366,0,0,1,.11-.266.384.384,0,0,1,.278-.114h1.512a1.154,1.154,0,0,1,.551.139,1.071,1.071,0,0,1,.417.407,1.227,1.227,0,0,1,.157.632,1.263,1.263,0,0,1-.151.625,1.079,1.079,0,0,1-.411.42,1.125,1.125,0,0,1-.563.147H312v.9a.361.361,0,0,1-.114.267A.392.392,0,0,1,311.611,318.038ZM313.123,316a.314.314,0,0,0,.236-.109.438.438,0,0,0,.109-.316.431.431,0,0,0-.059-.236.377.377,0,0,0-.139-.134.322.322,0,0,0-.147-.042H312V316Z" transform="translate(-299.775 -314.298)"/>
        <path id="Path_767" data-name="Path 767" d="M346.693,317.241a1.918,1.918,0,0,1-.979-.262,1.947,1.947,0,0,1-.7-.7,1.871,1.871,0,0,1,0-1.9,1.946,1.946,0,0,1,.7-.7,1.919,1.919,0,0,1,.977-.259,1.942,1.942,0,0,1,1.086.326.369.369,0,0,1,.171.32.385.385,0,0,1-.2.335.4.4,0,0,1-.186.046.369.369,0,0,1-.218-.066,1.189,1.189,0,0,0-.652-.195,1.147,1.147,0,0,0-.576.152,1.182,1.182,0,0,0-.427.414,1.089,1.089,0,0,0-.159.577,1.1,1.1,0,0,0,.157.577,1.167,1.167,0,0,0,1,.565,1.026,1.026,0,0,0,.448-.1.926.926,0,0,0,.33-.261.9.9,0,0,0,.14-.248h-.663a.383.383,0,0,1-.278-.114.377.377,0,0,1,0-.533.384.384,0,0,1,.278-.114h1.11a.382.382,0,0,1,.271.107.367.367,0,0,1,.117.26,1.647,1.647,0,0,1-.2.869,1.693,1.693,0,0,1-.629.649A1.775,1.775,0,0,1,346.693,317.241Z" transform="translate(-330.015 -313.426)"/>
        <path id="Path_768" data-name="Path 768" d="M388.987,317.241a1.952,1.952,0,0,1-1.681-.949,1.843,1.843,0,0,1-.261-.959,1.822,1.822,0,0,1,.264-.955,1.967,1.967,0,0,1,.709-.694,1.914,1.914,0,0,1,.97-.259,1.952,1.952,0,0,1,1.681.948,1.894,1.894,0,0,1,0,1.919,1.945,1.945,0,0,1-1.681.948Zm0-3.049a1.146,1.146,0,0,0-.576.152,1.181,1.181,0,0,0-.427.414,1.089,1.089,0,0,0-.159.577,1.1,1.1,0,0,0,.157.577,1.174,1.174,0,0,0,2.01,0,1.1,1.1,0,0,0,.157-.577,1.089,1.089,0,0,0-.159-.577,1.182,1.182,0,0,0-.427-.414A1.147,1.147,0,0,0,388.987,314.192Z" transform="translate(-368.161 -313.426)"/>
      </g>
      <g id="Group_624" data-name="Group 624" transform="translate(2.332)">
        <path id="Path_773" data-name="Path 773" d="M220.775,133.577a6.462,6.462,0,0,0,5.816,6.368,6.934,6.934,0,0,0,.438.836h-7.123a1.624,1.624,0,0,1-1.61-1.836l1.758-13.36a1.624,1.624,0,0,1,1.61-1.413h5.594a12.874,12.874,0,0,1,1.14,3.08,6.715,6.715,0,0,0-1.064-.084A6.5,6.5,0,0,0,220.775,133.577Z" transform="translate(-218.282 -119.333)" fill="#693ea3"/>
        <path id="Path_774" data-name="Path 774" d="M311.171,140.781h-7.733a6.932,6.932,0,0,1-.438-.836,6.686,6.686,0,0,0,.743.041,6.4,6.4,0,0,0,1.064-12.734,12.875,12.875,0,0,0-1.14-3.08h5.745a1.625,1.625,0,0,1,1.611,1.413l1.758,13.36A1.624,1.624,0,0,1,311.171,140.781Z" transform="translate(-294.691 -119.333)" fill="#693ea3"/>
        <g id="Group_623" data-name="Group 623" transform="translate(5.819)">
          <g id="Group_621" data-name="Group 621">
            <path id="Path_775" data-name="Path 775" d="M283.765,82.1a.314.314,0,0,1-.314-.314V78.066a2.6,2.6,0,1,0-5.21,0v.685a.314.314,0,0,1-.628,0v-.685a3.233,3.233,0,1,1,6.466,0v3.722A.314.314,0,0,1,283.765,82.1Z" transform="translate(-277.613 -74.833)" fill="#693ea3"/>
          </g>
          <g id="Group_622" data-name="Group 622" transform="translate(5.326 6.128)">
            <path id="Path_776" data-name="Path 776" d="M331.912,138.142a.827.827,0,1,0,.827-.827A.827.827,0,0,0,331.912,138.142Z" transform="translate(-331.912 -137.315)" fill="#693ea3"/>
          </g>
        </g>
        <path id="Path_777" data-name="Path 777" d="M269.844,176.97c-1.127,2.3-2.216,3.759-2.118,6.684q.006.175.019.341a4.387,4.387,0,0,1-3.242-4.2,4.452,4.452,0,0,1,4.519-4.379,4.637,4.637,0,0,1,1.209.16A4.153,4.153,0,0,1,269.844,176.97Z" transform="translate(-259.971 -165.549)" fill="#693ea3"/>
        <path id="Path_778" data-name="Path 778" d="M303.117,181.262a4.441,4.441,0,0,1-4.519,4.379,4.659,4.659,0,0,1-1.277-.177q-.014-.167-.019-.341c-.1-2.924.991-4.381,2.118-6.684a4.151,4.151,0,0,0,.388-1.4A4.4,4.4,0,0,1,303.117,181.262Z" transform="translate(-289.547 -167.018)" fill="#693ea3"/>
      </g>
    </g>
    <rect id="Rectangle_277" data-name="Rectangle 277" width="31" height="31" transform="translate(153.653 57.867)" fill="none"/>
  </g>
</svg>
