<svg xmlns="http://www.w3.org/2000/svg" width="22.841" height="22.841" viewBox="0 0 22.841 22.841">
  <path id="Icon_awesome-question-circle" data-name="Icon awesome-question-circle" d="M23.4,11.983A11.421,11.421,0,1,1,11.983.563,11.42,11.42,0,0,1,23.4,11.983ZM12.29,4.339A5.965,5.965,0,0,0,6.922,7.275a.553.553,0,0,0,.125.749l1.6,1.212a.552.552,0,0,0,.767-.1c.823-1.043,1.387-1.648,2.639-1.648.941,0,2.1.605,2.1,1.518,0,.69-.569,1.044-1.5,1.565-1.083.607-2.517,1.363-2.517,3.254v.184a.553.553,0,0,0,.553.553h2.579a.553.553,0,0,0,.553-.553v-.061c0-1.311,3.831-1.365,3.831-4.912C17.656,6.365,14.885,4.339,12.29,4.339Zm-.306,11.421A2.118,2.118,0,1,0,14.1,17.878,2.121,2.121,0,0,0,11.983,15.759Z" transform="translate(-0.563 -0.563)" fill="#693ea3"/>
</svg>
