<svg xmlns="http://www.w3.org/2000/svg" width="20.243" height="18.686" viewBox="0 0 20.243 18.686">
  <g id="Icon_ionic-ios-wallet" data-name="Icon ionic-ios-wallet" transform="translate(-3.375 -4.499)">
    <path id="Path_784" data-name="Path 784" d="M20.7,11.25H6.295a2.922,2.922,0,0,0-2.92,2.92v8.175a2.922,2.922,0,0,0,2.92,2.92H20.7a2.922,2.922,0,0,0,2.92-2.92V14.17A2.922,2.922,0,0,0,20.7,11.25Z" transform="translate(0 -2.079)" fill="#693ea3"/>
    <path id="Path_785" data-name="Path 785" d="M18.072,4.548,6.641,6.782C5.765,6.977,4.5,7.857,4.5,8.928A3.066,3.066,0,0,1,6.884,8H20.85v-1a2.794,2.794,0,0,0-.676-1.83h0A2.3,2.3,0,0,0,18.072,4.548Z" transform="translate(-0.346 0)" fill="#693ea3"/>
  </g>
</svg>
