<svg xmlns="http://www.w3.org/2000/svg" width="18.358" height="22.03" viewBox="0 0 18.358 22.03">
  <path id="Icon_map-accounting" data-name="Icon map-accounting" d="M20.123.72H5.436A1.841,1.841,0,0,0,3.6,2.556V20.914A1.841,1.841,0,0,0,5.436,22.75H20.123a1.841,1.841,0,0,0,1.836-1.836V2.556A1.841,1.841,0,0,0,20.123.72ZM9.108,19.078A.921.921,0,0,1,8.19,20H6.354a.921.921,0,0,1-.918-.918v-.459a.921.921,0,0,1,.918-.918H8.19a.921.921,0,0,1,.918.918Zm0-3.672a.921.921,0,0,1-.918.918H6.354a.921.921,0,0,1-.918-.918v-.459a.921.921,0,0,1,.918-.918H8.19a.921.921,0,0,1,.918.918Zm0-3.672a.921.921,0,0,1-.918.918H6.354a.921.921,0,0,1-.918-.918v-.459a.921.921,0,0,1,.918-.918H8.19a.921.921,0,0,1,.918.918Zm5.508,7.343A.921.921,0,0,1,13.7,20H11.861a.921.921,0,0,1-.918-.918v-.459a.921.921,0,0,1,.918-.918H13.7a.921.921,0,0,1,.918.918v.459Zm0-3.672a.921.921,0,0,1-.918.918H11.861a.921.921,0,0,1-.918-.918v-.459a.921.921,0,0,1,.918-.918H13.7a.921.921,0,0,1,.918.918v.459Zm0-3.672a.921.921,0,0,1-.918.918H11.861a.921.921,0,0,1-.918-.918v-.459a.921.921,0,0,1,.918-.918H13.7a.921.921,0,0,1,.918.918v.459Zm5.507,7.343A.921.921,0,0,1,19.2,20H17.369a.921.921,0,0,1-.918-.918v-.459a.921.921,0,0,1,.918-.918H19.2a.921.921,0,0,1,.918.918Zm0-3.672a.921.921,0,0,1-.918.918H17.369a.921.921,0,0,1-.918-.918v-.459a.921.921,0,0,1,.918-.918H19.2a.921.921,0,0,1,.918.918Zm0-3.672a.921.921,0,0,1-.918.918H17.369a.921.921,0,0,1-.918-.918v-.459a.921.921,0,0,1,.918-.918H19.2a.921.921,0,0,1,.918.918Zm0-4.131a.921.921,0,0,1-.918.918H6.354A.921.921,0,0,1,5.436,7.6V3.933a.921.921,0,0,1,.918-.918H19.2a.921.921,0,0,1,.918.918Z" transform="translate(-3.6 -0.72)" fill="#693ea3"/>
</svg>
