<svg xmlns="http://www.w3.org/2000/svg" width="179.215" height="214.952" viewBox="0 0 179.215 214.952">
  <g id="Group_614" data-name="Group 614" transform="translate(0 3.202)">
    <g id="Group_610" data-name="Group 610" transform="translate(0 181.718)">
      <path id="Path_749" data-name="Path 749" d="M575.982,607.511a19.187,19.187,0,0,1-5.536-.821,14.029,14.029,0,0,1-4.824-2.5,7.974,7.974,0,0,1-2.784-4.2l-.005-.02,0-.021a3.713,3.713,0,0,1-.089-.7,2.942,2.942,0,0,1,.859-2.109,3.123,3.123,0,0,1,4.111-.285,2.877,2.877,0,0,1,1.077,1.627,2.657,2.657,0,0,0,1.044,1.287A8,8,0,0,0,572.405,601a12.507,12.507,0,0,0,3.577.486,13.153,13.153,0,0,0,4.776-.837c1.231-.478,1.8-1.182,1.8-2.215,0-1.015-.566-1.721-1.783-2.222a21.966,21.966,0,0,0-5.255-1.324,20.749,20.749,0,0,1-8-2.663,7.568,7.568,0,0,1-1.55-11.009,9.927,9.927,0,0,1,4.352-2.81,17.572,17.572,0,0,1,5.658-.886,15.815,15.815,0,0,1,7.338,1.664,9.19,9.19,0,0,1,4.471,4.49l.01.025a3.225,3.225,0,0,1,.232,1.146,3.02,3.02,0,0,1-1.861,2.743l-.018.008a3.247,3.247,0,0,1-1.173.246,2.948,2.948,0,0,1-1.725-.547,3.326,3.326,0,0,1-1.111-1.328l-.006-.014a3.636,3.636,0,0,0-2.239-1.691,11.914,11.914,0,0,0-8.145.008c-.987.4-1.4.952-1.349,1.8v.044c0,.49.153,1.2,1.469,1.711a20.122,20.122,0,0,0,4.559,1.087l.022,0a23.982,23.982,0,0,1,8.662,2.9,7.168,7.168,0,0,1,3.584,6.51,7.642,7.642,0,0,1-1.813,5.134,10.643,10.643,0,0,1-4.687,3.076A19.027,19.027,0,0,1,575.982,607.511Z" transform="translate(-562.74 -577.48)" fill="#fff"/>
      <path id="Path_750" data-name="Path 750" d="M621.557,607.123a3.043,3.043,0,0,1-2.2-.89,2.844,2.844,0,0,1-.893-2.105v-7.046H607.131v7.046a2.877,2.877,0,0,1-.867,2.1,3.132,3.132,0,0,1-4.382.008,2.844,2.844,0,0,1-.893-2.105v-22.7a2.847,2.847,0,0,1,.893-2.105,3.131,3.131,0,0,1,4.381.008,2.877,2.877,0,0,1,.868,2.1v9.622h11.337v-9.622a2.847,2.847,0,0,1,.893-2.105,3.131,3.131,0,0,1,4.381.008,2.877,2.877,0,0,1,.868,2.1v22.7a2.877,2.877,0,0,1-.867,2.1A3.022,3.022,0,0,1,621.557,607.123Z" transform="translate(-571.461 -577.689)" fill="#fff"/>
      <path id="Path_751" data-name="Path 751" d="M650.527,607.5a15.366,15.366,0,0,1-13.233-7.465,14.505,14.505,0,0,1-2.054-7.551,14.339,14.339,0,0,1,2.074-7.515,15.474,15.474,0,0,1,5.581-5.462,15.067,15.067,0,0,1,7.633-2.038,15.361,15.361,0,0,1,13.233,7.465,14.9,14.9,0,0,1,0,15.1,15.3,15.3,0,0,1-13.233,7.465Zm0-24a9.025,9.025,0,0,0-4.532,1.193,9.3,9.3,0,0,0-3.362,3.256,8.568,8.568,0,0,0-1.251,4.538,8.662,8.662,0,0,0,1.236,4.542,9.244,9.244,0,0,0,15.82,0,8.669,8.669,0,0,0,1.235-4.542,8.578,8.578,0,0,0-1.251-4.539,9.31,9.31,0,0,0-3.362-3.255A9.024,9.024,0,0,0,650.527,583.5Z" transform="translate(-579.271 -577.469)" fill="#fff"/>
      <path id="Path_752" data-name="Path 752" d="M682.513,607.123a3.02,3.02,0,0,1-2.186-.9,2.877,2.877,0,0,1-.866-2.1v-22.7a2.877,2.877,0,0,1,.867-2.1,3.019,3.019,0,0,1,2.185-.9h11.9a9.082,9.082,0,0,1,4.337,1.092,8.429,8.429,0,0,1,3.282,3.2,9.654,9.654,0,0,1,1.234,4.972,9.946,9.946,0,0,1-1.187,4.918,8.5,8.5,0,0,1-3.238,3.3,8.852,8.852,0,0,1-4.428,1.158H685.6v7.046a2.845,2.845,0,0,1-.894,2.105A3.083,3.083,0,0,1,682.513,607.123Zm11.9-16.07a2.473,2.473,0,0,0,1.854-.861,3.448,3.448,0,0,0,.858-2.49,3.391,3.391,0,0,0-.462-1.855,2.976,2.976,0,0,0-1.1-1.054,2.537,2.537,0,0,0-1.155-.33H685.6v6.589Z" transform="translate(-589.354 -577.689)" fill="#fff"/>
      <path id="Path_753" data-name="Path 753" d="M728.276,607.5a15.1,15.1,0,0,1-7.71-2.058,15.327,15.327,0,0,1-5.544-5.485,14.723,14.723,0,0,1,.019-14.965,15.33,15.33,0,0,1,5.544-5.484,15.1,15.1,0,0,1,7.69-2.039,15.284,15.284,0,0,1,8.547,2.568,2.908,2.908,0,0,1,1.348,2.518,3.032,3.032,0,0,1-1.59,2.636,3.132,3.132,0,0,1-1.463.359,2.908,2.908,0,0,1-1.714-.52,9.358,9.358,0,0,0-5.129-1.532,9.024,9.024,0,0,0-4.532,1.193,9.3,9.3,0,0,0-3.362,3.256,8.567,8.567,0,0,0-1.251,4.538,8.667,8.667,0,0,0,1.235,4.542,9.185,9.185,0,0,0,7.91,4.445,8.077,8.077,0,0,0,3.525-.754,7.289,7.289,0,0,0,2.6-2.051,7.1,7.1,0,0,0,1.1-1.955h-5.218a3.014,3.014,0,0,1-2.186-.9,2.971,2.971,0,0,1,0-4.194,3.018,3.018,0,0,1,2.185-.9h8.74a3.006,3.006,0,0,1,2.131.844,2.886,2.886,0,0,1,.92,2.048,12.966,12.966,0,0,1-1.574,6.844,13.329,13.329,0,0,1-4.954,5.111A13.97,13.97,0,0,1,728.276,607.5Z" transform="translate(-596.999 -577.469)" fill="#f8ad39"/>
      <path id="Path_754" data-name="Path 754" d="M770.571,607.5a15.364,15.364,0,0,1-13.233-7.466,14.508,14.508,0,0,1-2.054-7.55,14.34,14.34,0,0,1,2.074-7.515,15.477,15.477,0,0,1,5.581-5.462,15.064,15.064,0,0,1,7.632-2.038,15.364,15.364,0,0,1,13.233,7.465,14.908,14.908,0,0,1,0,15.1,15.3,15.3,0,0,1-13.233,7.465Zm0-24a9.022,9.022,0,0,0-4.532,1.193,9.3,9.3,0,0,0-3.362,3.256,8.567,8.567,0,0,0-1.252,4.538,8.667,8.667,0,0,0,1.236,4.542,9.243,9.243,0,0,0,15.819,0,8.669,8.669,0,0,0,1.236-4.542,8.573,8.573,0,0,0-1.252-4.538,9.306,9.306,0,0,0-3.362-3.256A9.024,9.024,0,0,0,770.571,583.5Z" transform="translate(-606.643 -577.469)" fill="#f8ad39"/>
    </g>
    <g id="Group_613" data-name="Group 613" transform="translate(18.358)">
      <path id="Path_758" data-name="Path 758" d="M606.145,462.239c0,26.165,20.2,47.3,45.776,50.126a54.622,54.622,0,0,0,3.449,6.584H599.306a12.785,12.785,0,0,1-12.674-14.455l13.839-105.16a12.78,12.78,0,0,1,12.671-11.12h44.032a101.332,101.332,0,0,1,8.973,24.24,52.867,52.867,0,0,0-8.375-.664C629.636,411.791,606.145,434.242,606.145,462.239Z" transform="translate(-586.52 -352.598)" fill="#f8ad39"/>
      <path id="Path_759" data-name="Path 759" d="M735.551,518.949H674.687a54.622,54.622,0,0,1-3.449-6.584,52.5,52.5,0,0,0,5.849.323c28.4,0,51.628-22.189,51.628-50.449,0-25.3-18.891-45.894-43.253-49.785a101.332,101.332,0,0,0-8.973-24.24h45.223a12.789,12.789,0,0,1,12.678,11.12l13.836,105.16A12.786,12.786,0,0,1,735.551,518.949Z" transform="translate(-605.837 -352.598)" fill="#fff"/>
      <path id="Path_760" data-name="Path 760" d="M649.053,370.445v-5.391a22.976,22.976,0,0,1,45.952,0v29.293" transform="translate(-600.778 -342.078)" fill="none" stroke="#f8ad39" stroke-linecap="round" stroke-linejoin="round" stroke-width="6.404"/>
      <path id="Path_761" data-name="Path 761" d="M674.774,451.705c-8.869,18.126-17.44,29.588-16.669,52.607.029.916.082,1.81.152,2.686-14.681-4.162-25.516-17.237-25.516-33.075,0-19.28,16.191-34.466,35.568-34.466a36.5,36.5,0,0,1,9.518,1.258A32.684,32.684,0,0,1,674.774,451.705Z" transform="translate(-597.059 -364.282)" fill="#f8ad39"/>
      <path id="Path_762" data-name="Path 762" d="M711.354,474.295c0,19.28-16.057,34.47-35.568,34.47a36.679,36.679,0,0,1-10.052-1.395c-.07-.875-.123-1.769-.152-2.686-.771-23.019,7.8-34.481,16.669-52.607a32.684,32.684,0,0,0,3.053-10.991C700.189,445.1,711.354,458.282,711.354,474.295Z" transform="translate(-604.536 -364.653)" fill="#fff"/>
    </g>
  </g>
</svg>
