<svg xmlns="http://www.w3.org/2000/svg" width="23.466" height="6.278" viewBox="0 0 23.466 6.278">
  <g id="klarna_1_" data-name="klarna (1)" transform="translate(0 -0.124)">
    <path id="Path" d="M.994,0H.214C.018,0,0,.02,0,.217V6c0,.161.028.188.187.189.255,0,.511,0,.767,0,.24,0,.263-.021.263-.258V1.023c0-.269,0-.538,0-.807C1.216.032,1.182,0,.994,0Z" transform="translate(5.218 0.125)"/>
    <path id="Path-2" data-name="Path" d="M1.1,0C.863,0,.625,0,.387,0A.358.358,0,0,0,0,.4V5.982c0,.164.022.186.187.186q.363,0,.726,0a.339.339,0,0,0,.382-.381V.2C1.3.04,1.261,0,1.1,0Z" transform="translate(0 0.124)"/>
    <path id="Path-3" data-name="Path" d="M2.88,2.717a2.961,2.961,0,0,0-.8-1.805A2.922,2.922,0,0,0,.222,0C0,0,0,0,0,.167A1.668,1.668,0,0,0,.026.353a2.9,2.9,0,0,0,1.2,1.976,2.9,2.9,0,0,0,1.481.543C2.869,2.887,2.9,2.875,2.88,2.717Z" transform="translate(1.696 3.434)"/>
    <path id="Path-4" data-name="Path" d="M2.713.009c-.062.01-.126.006-.187.016A2.932,2.932,0,0,0,.742.986,2.908,2.908,0,0,0,0,2.708c-.015.17-.005.171.174.194a6.335,6.335,0,0,0,.737-.187A2.909,2.909,0,0,0,2.882.16C2.9,0,2.875-.015,2.713.009Z" transform="translate(1.694 0.131)"/>
    <path id="Shape" d="M.815,4.653a1.051,1.051,0,0,1-.756-.814,2.044,2.044,0,0,1-.019-.892,1.081,1.081,0,0,1,.833-.842,4.232,4.232,0,0,1,1.275-.136c.308,0,.309,0,.308-.311a1.353,1.353,0,0,0-.009-.242.464.464,0,0,0-.492-.408c-.465,0-.931.02-1.395.046C.332,1.068.3,1.058.3.827.3.666.305.5.3.344A.148.148,0,0,1,.42.174,4.777,4.777,0,0,1,2.6.1,1.3,1.3,0,0,1,3.666,1.4c.027,1.025.022,2.052.028,3.078,0,.137-.049.182-.19.183H2.777c-.205,0-.23-.025-.24-.228,0-.022-.005-.044-.012-.086-.138.076-.255.15-.378.21a1.743,1.743,0,0,1-.77.179A1.989,1.989,0,0,1,.815,4.653Z" transform="translate(7.046 1.655)"/>
    <path id="Path-5" data-name="Path" d="M.115.073V.109h.1V.4H.256V.109h.1V.073Z" transform="translate(22.752 1.323)"/>
    <path id="Path-6" data-name="Path" d="M.381.073H.325L.267.23C.253.271.241.306.233.339h0C.223.305.213.27.2.23L.145.073H.092L.069.4h.04L.118.258c0-.049.005-.1.006-.143h0c.01.038.022.08.037.126L.215.4H.247L.3.238C.32.193.333.152.344.115h0c0,.04,0,.1.006.14L.359.4H.4Z" transform="translate(23.065 1.323)"/>
    <path id="Path-7" data-name="Path" d="M3.928,1.711A3.6,3.6,0,0,0,3.843.978,1.091,1.091,0,0,0,2.93.041a2.1,2.1,0,0,0-1.6.312c-.048.032-.1.061-.178.113,0-.1-.009-.156-.01-.217,0-.158-.031-.188-.19-.189-.253,0-.5,0-.754,0C.045.062,0,.108,0,.255q0,2.1,0,4.2c0,.164.044.209.205.21.278,0,.556,0,.834,0,.124,0,.18-.048.178-.175,0-.278,0-.555,0-.834,0-.74,0-1.48,0-2.219,0-.061.016-.153.057-.178a1.439,1.439,0,0,1,1.008-.246.429.429,0,0,1,.383.362,2.424,2.424,0,0,1,.047.439c.006.88,0,1.758,0,2.637,0,.192.022.213.218.213.251,0,.5,0,.754,0,.217,0,.242-.024.242-.236C3.932,3.523,3.938,2.617,3.928,1.711Z" transform="translate(14.479 1.652)"/>
    <path id="Shape-2" data-name="Shape" d="M.007,3.55a2.9,2.9,0,0,1,.013-.56,1,1,0,0,1,.76-.852,6.228,6.228,0,0,1,.975-.165,4.278,4.278,0,0,1,.579,0c.085,0,.127-.026.122-.114a3.53,3.53,0,0,0-.017-.4.473.473,0,0,0-.515-.446c-.46,0-.921.023-1.382.049C.31,1.067.277,1.049.277.811c0-.148,0-.3,0-.444A.187.187,0,0,1,.444.161,5.752,5.752,0,0,1,2.069.009a2.712,2.712,0,0,1,.68.138A1.275,1.275,0,0,1,3.641,1.24a2.816,2.816,0,0,1,.029.416q0,1.4,0,2.8c0,.185-.023.206-.211.206h-.7c-.2,0-.213-.012-.224-.207a.347.347,0,0,0-.008-.068c0-.008-.009-.014-.023-.034a.445.445,0,0,0-.077.037,1.957,1.957,0,0,1-1.054.354q-.063.005-.124.005A1.2,1.2,0,0,1,.007,3.55Z" transform="translate(19.02 1.654)"/>
    <path id="Path-8" data-name="Path" d="M2.478.167C2.479.047,2.425,0,2.306,0a1.713,1.713,0,0,0-.95.33l-.135.1c0-.064-.01-.1-.01-.141,0-.193-.038-.229-.226-.229H.259C.037.056,0,.092,0,.312V2.168Q0,3.293,0,4.415c0,.2.044.243.232.243.255,0,.512,0,.767,0,.206,0,.239-.031.239-.244q0-1.492,0-2.987a.187.187,0,0,1,.119-.2A2.009,2.009,0,0,1,2.3,1c.123.005.183-.041.18-.172C2.474.605,2.475.387,2.478.167Z" transform="translate(11.494 1.658)"/>
  </g>
</svg>
