<svg xmlns="http://www.w3.org/2000/svg" width="24" height="14.4" viewBox="0 0 24 14.4">
  <g id="mastercard_1_" data-name="mastercard (1)" transform="translate(0 -0.038)">
    <path id="Path" d="M14.4,7.2A7.2,7.2,0,0,1,0,7.2H0a7.2,7.2,0,1,1,14.4,0Z" transform="translate(9.6 0.038)" fill="#ffb600"/>
    <path id="Path-2" data-name="Path" d="M7.2,0a7.219,7.219,0,0,1,7.2,7.2h0A7.2,7.2,0,0,1,0,7.2" transform="translate(9.6 0.038)" fill="#f7981d"/>
    <path id="Path-3" data-name="Path" d="M0,0A7.219,7.219,0,0,1,7.2,7.2h0A7.194,7.194,0,0,1,0,14.4" transform="translate(16.8 0.038)" fill="#ff8500"/>
    <path id="Path-4" data-name="Path" d="M7.124,0A7.2,7.2,0,0,0,7.2,14.4a7.284,7.284,0,0,0,4.838-1.867h0a6.845,6.845,0,0,0,.724-.762H11.276a8.788,8.788,0,0,1-.533-.724H13.3a4.88,4.88,0,0,0,.419-.762h-3.39a4.54,4.54,0,0,1-.3-.762h3.962a7.564,7.564,0,0,0,.381-2.286,9.833,9.833,0,0,0-.152-1.524H9.79a5.57,5.57,0,0,1,.19-.762h3.962a4.54,4.54,0,0,0-.3-.762H10.286a7.555,7.555,0,0,1,.419-.762h2.552a3.623,3.623,0,0,0-.571-.762h-1.41A6.493,6.493,0,0,1,12,1.943,7.03,7.03,0,0,0,7.162.076C7.162,0,7.162,0,7.124,0Z" transform="translate(0 0.038)" fill="#ff5050"/>
    <path id="Path-5" data-name="Path" d="M0,7.124a7.194,7.194,0,0,0,7.2,7.2,7.284,7.284,0,0,0,4.838-1.867h0a6.845,6.845,0,0,0,.724-.762H11.276a8.788,8.788,0,0,1-.533-.724H13.3a4.88,4.88,0,0,0,.419-.762h-3.39a4.54,4.54,0,0,1-.3-.762h3.962a7.564,7.564,0,0,0,.381-2.286,9.833,9.833,0,0,0-.152-1.524H9.79a5.57,5.57,0,0,1,.19-.762h3.962a4.54,4.54,0,0,0-.3-.762H10.286a7.555,7.555,0,0,1,.419-.762h2.552a3.623,3.623,0,0,0-.571-.762h-1.41A6.493,6.493,0,0,1,12,1.867,7.03,7.03,0,0,0,7.162,0H7.124" transform="translate(0 0.114)" fill="#e52836"/>
    <path id="Path-6" data-name="Path" d="M.076,14.324a7.284,7.284,0,0,0,4.838-1.867h0a6.845,6.845,0,0,0,.724-.762H4.152a8.789,8.789,0,0,1-.533-.724H6.171a4.88,4.88,0,0,0,.419-.762H3.2a4.54,4.54,0,0,1-.3-.762H6.857a7.564,7.564,0,0,0,.381-2.286,9.833,9.833,0,0,0-.152-1.524H2.667a5.569,5.569,0,0,1,.19-.762H6.819a4.54,4.54,0,0,0-.3-.762H3.162a7.555,7.555,0,0,1,.419-.762H6.133a3.623,3.623,0,0,0-.571-.762H4.152a6.493,6.493,0,0,1,.724-.724A7.03,7.03,0,0,0,.038,0H0" transform="translate(7.124 0.114)" fill="#cb2026"/>
    <g id="Group" transform="translate(0.667 5.333)">
      <path id="Path-7" data-name="Path" d="M1.1,3.352,1.219,2.7a1.65,1.65,0,0,1-.19.038c-.267,0-.3-.152-.267-.229L.99,1.181H1.41L1.524.457H1.143L1.219,0H.457S0,2.514,0,2.819a.572.572,0,0,0,.61.648A1.169,1.169,0,0,0,1.1,3.352Z" transform="translate(7.981 0.381)" fill="#fff"/>
      <path id="Shape" d="M0,1.719C0,.767.572-.071,1.372,0a1.032,1.032,0,0,1,1.1,1.105,4.931,4.931,0,0,1-.114.686H.8s-.152.609.686.609a2.283,2.283,0,0,0,.8-.191l-.153.725a1.978,1.978,0,0,1-.8.114A1.212,1.212,0,0,1,0,1.719Z" transform="translate(9.352 0.795)" fill="#fff"/>
      <path id="Path-8" data-name="Path" d="M2.1,3.7l.152-.838a1.872,1.872,0,0,1-.648.19c-.533,0-.762-.419-.762-.876,0-.914.457-1.41.99-1.41A1.272,1.272,0,0,1,2.514.99l.114-.8A2.679,2.679,0,0,0,1.752,0C.876,0,0,.762,0,2.21c0,.952.457,1.6,1.371,1.6A3.419,3.419,0,0,0,2.1,3.7Z" transform="translate(13.429 0.038)" fill="#fff"/>
      <path id="Shape-2" data-name="Shape" d="M0,2.247c0-.876.724-1.142,1.372-1.142h.343s.038-.039.038-.191c0-.229-.229-.266-.5-.266A2.255,2.255,0,0,0,.419.8L.534.152A2.7,2.7,0,0,1,1.447,0,.9.9,0,0,1,2.476.952l-.3,2.1H1.486l.038-.3a1.143,1.143,0,0,1-.8.343C.457,3.086,0,2.933,0,2.247Z" transform="translate(3.448 0.724)" fill="#fff"/>
      <path id="Path-9" data-name="Path" d="M.876,3.124a.976.976,0,0,0,1.143-.99c0-.952-.914-.762-.914-1.143,0-.19.152-.267.419-.267.114,0,.533.038.533.038L2.171.076A2.894,2.894,0,0,0,1.448,0C.876,0,.3.229.3.99c0,.876.952.8.952,1.143C1.257,2.362.99,2.4.8,2.4a2.491,2.491,0,0,1-.686-.114L0,2.971C.038,3.048.229,3.124.876,3.124Z" transform="translate(5.771 0.686)" fill="#fff"/>
      <path id="Shape-3" data-name="Shape" d="M0,2.476C0,1.486.609.648,1.3.648a1.055,1.055,0,0,1,.724.381L2.172,0l.8.038L2.4,3.7H1.638l.038-.266a1.017,1.017,0,0,1-.724.3C.305,3.733,0,3.086,0,2.476Z" transform="translate(19.676 0.114)" fill="#fff"/>
      <path id="Path-10" data-name="Path" d="M.724,3.657,1.181.914l.076,2.743H1.79L2.781.914,2.362,3.657h.8L3.771,0H2.514L1.752,2.248,1.714,0H.61L0,3.657Z" transform="translate(0.019 0.114)" fill="#fff"/>
      <path id="Path-11" data-name="Path" d="M.838,2.971c.229-1.257.267-2.286.8-2.1A2.99,2.99,0,0,1,1.9,0H1.752c-.343,0-.61.457-.61.457L1.219.038H.5L0,3.01H.838Z" transform="translate(11.714 0.8)" fill="#fff"/>
      <path id="Shape-4" data-name="Shape" d="M0,2.247c0-.876.724-1.142,1.372-1.142h.343s.038-.039.038-.191c0-.229-.229-.266-.5-.266A2.255,2.255,0,0,0,.419.8L.534.152A2.7,2.7,0,0,1,1.447,0,.889.889,0,0,1,2.476.952l-.3,2.1H1.486l.038-.3a1.143,1.143,0,0,1-.8.343C.457,3.086,0,2.933,0,2.247Z" transform="translate(15.829 0.724)" fill="#fff"/>
      <path id="Path-12" data-name="Path" d="M.838,2.971c.229-1.257.267-2.286.8-2.1A2.99,2.99,0,0,1,1.9,0H1.752c-.343,0-.61.457-.61.457L1.219.038H.5L0,3.01H.838Z" transform="translate(18.114 0.8)" fill="#fff"/>
    </g>
    <g id="Group-2" data-name="Group" transform="translate(0.667 5.333)">
      <path id="Path-13" data-name="Path" d="M0,2.819a.572.572,0,0,0,.61.648,1.45,1.45,0,0,0,.571-.114L1.3,2.7a1.65,1.65,0,0,1-.19.038c-.267,0-.3-.152-.267-.229l.229-1.333h.419L1.6.457H1.219L1.3,0" transform="translate(7.905 0.381)" fill="#dce5e5"/>
      <path id="Shape-5" data-name="Shape" d="M0,1.719C0,.767.191-.071.991,0A1.032,1.032,0,0,1,2.1,1.11a4.931,4.931,0,0,1-.114.686H.419s-.153.609.686.609a2.276,2.276,0,0,0,.8-.191l-.152.725a1.978,1.978,0,0,1-.8.114C.343,3.053,0,2.786,0,1.719Z" transform="translate(9.733 0.795)" fill="#dce5e5"/>
      <path id="Path-14" data-name="Path" d="M1.714,3.7l.152-.838a1.872,1.872,0,0,1-.648.19c-.533,0-.762-.419-.762-.876,0-.914.457-1.41.99-1.41A1.272,1.272,0,0,1,2.133.99l.114-.8A2.679,2.679,0,0,0,1.371,0C.5,0,0,.762,0,2.21c0,.952.076,1.6.99,1.6A3.419,3.419,0,0,0,1.714,3.7Z" transform="translate(13.81 0.038)" fill="#dce5e5"/>
      <path id="Shape-6" data-name="Shape" d="M0,2.21c0-.877.724-1.143,1.372-1.143h.343s.038-.038.038-.19c0-.229-.229-.267-.5-.267A2.244,2.244,0,0,0,.419.762L1.409,0c.305,0,1.067.038,1.067.914l-.3,2.1H1.486L1.524,2.7a1.143,1.143,0,0,1-.8.343C.457,3.047,0,2.9,0,2.21Z" transform="translate(3.448 0.8)" fill="#dce5e5"/>
      <path id="Path-15" data-name="Path" d="M0,3.048a3.224,3.224,0,0,0,.876.076.976.976,0,0,0,1.143-.99c0-.952-.914-.762-.914-1.143,0-.19.152-.267.419-.267.114,0,.533.038.533.038L2.171.076A2.894,2.894,0,0,0,1.448,0C.876,0,.686.229.686.99c0,.876.571.8.571,1.143C1.257,2.362.99,2.4.8,2.4" transform="translate(5.81 0.686)" fill="#dce5e5"/>
      <path id="Shape-7" data-name="Shape" d="M0,2.438C0,1.447.231.609.917.609a1.054,1.054,0,0,1,.724.382L2.593,0,2.021,3.657H1.26L1.3,3.39A1.016,1.016,0,0,1,.574,3.7C-.074,3.7,0,3.047,0,2.438Z" transform="translate(20.054 0.152)" fill="#dce5e5"/>
      <path id="Path-16" data-name="Path" d="M.724,3.657,1.181.914l.076,2.743H1.79L2.781.914,2.362,3.657h.8L3.771,0H2.819L1.752,2.248,1.714,0H1.3L0,3.657Z" transform="translate(0.019 0.114)" fill="#dce5e5"/>
      <path id="Path-17" data-name="Path" d="M0,2.971H.8c.229-1.257.267-2.286.8-2.1A2.99,2.99,0,0,1,1.867,0H1.714C1.371,0,1.1.457,1.1.457L1.181.038" transform="translate(11.752 0.8)" fill="#dce5e5"/>
      <path id="Shape-8" data-name="Shape" d="M0,2.21c0-.877.724-1.143,1.372-1.143h.343s.038-.038.038-.19c0-.229-.229-.267-.5-.267A2.244,2.244,0,0,0,.419.762L1.409,0c.305,0,1.067.038,1.067.914l-.3,2.1H1.486L1.524,2.7a1.143,1.143,0,0,1-.8.343C.457,3.047,0,2.9,0,2.21Z" transform="translate(15.829 0.8)" fill="#dce5e5"/>
      <path id="Path-18" data-name="Path" d="M0,2.971H.8c.229-1.257.267-2.286.8-2.1A2.99,2.99,0,0,1,1.867,0H1.714C1.371,0,1.1.457,1.1.457L1.181.038" transform="translate(18.152 0.8)" fill="#dce5e5"/>
    </g>
  </g>
</svg>
