<svg xmlns="http://www.w3.org/2000/svg" width="23.99" height="6.675" viewBox="0 0 23.99 6.675">
  <g id="paypal_2_" data-name="paypal (2)" transform="translate(0 -0.02)">
    <path id="Shape" d="M.03,2.595c.2-.942,1.139-1.218,2.552-1.218.079-.432-.2-.51-.667-.51A5.173,5.173,0,0,0,.7,1.141l.118-.9A6.6,6.6,0,0,1,2.267,0c.864-.039,1.806.314,1.61,1.374l-.55,2.552H2.071L2.149,3.5a1.544,1.544,0,0,1-1.091.44A1.009,1.009,0,0,1,.03,2.595Z" transform="translate(16.461 1.195)" fill="#32a6ce"/>
    <path id="Shape-2" data-name="Shape" d="M.03,2.552c.2-.942,1.139-1.218,2.552-1.218.079-.432-.2-.51-.667-.51A5.12,5.12,0,0,0,.7,1.1L2.267,0c.864,0,1.846.275,1.61,1.335l-.55,2.552H2.071l.078-.432a1.544,1.544,0,0,1-1.091.44A1.009,1.009,0,0,1,.03,2.552Z" transform="translate(16.461 1.237)" fill="#1a80ad"/>
    <path id="Path" d="M1.021,0,0,5.1H1.256L2.317,0Z" transform="translate(20.378 0.02)" fill="#32a6ce"/>
    <path id="Path-2" data-name="Path" d="M1.924,0,0,5.1H1.256L2.317,0H1.924Z" transform="translate(20.378 0.02)" fill="#1a80ad"/>
    <path id="Shape-3" data-name="Shape" d="M0,5.1,1.021,0H3.337a1.64,1.64,0,0,1,1.3,2A1.866,1.866,0,0,1,2.709,3.533H1.728L1.374,5.1Z" transform="translate(12.211 0.02)" fill="#32a6ce"/>
    <path id="Shape-4" data-name="Shape" d="M0,5.1,1.806,0H3.377A1.6,1.6,0,0,1,4.633,2,1.866,1.866,0,0,1,2.709,3.533H1.728L1.374,5.1Z" transform="translate(12.172 0.02)" fill="#1a80ad"/>
    <path id="Shape-5" data-name="Shape" d="M.03,2.595c.2-.942,1.139-1.218,2.513-1.218.079-.432-.2-.51-.667-.51a4.728,4.728,0,0,0-1.218.275l.118-.9A5.848,5.848,0,0,1,2.19,0c.864-.039,1.845.314,1.649,1.374l-.55,2.552H2.032L2.111,3.5a1.527,1.527,0,0,1-1.078.44C.42,3.937-.137,3.548.03,2.595Z" transform="translate(4.289 1.195)" fill="#21789e"/>
    <path id="Shape-6" data-name="Shape" d="M.03,2.552c.2-.942,1.139-1.218,2.513-1.218.079-.432-.2-.51-.667-.51A4.682,4.682,0,0,0,.658,1.1L2.19,0C3.054,0,4.035.275,3.8,1.335L3.25,3.887H1.993l.118-.432a1.527,1.527,0,0,1-1.078.44C.42,3.895-.137,3.506.03,2.552Z" transform="translate(4.328 1.237)" fill="#1a5b80"/>
    <path id="Path-3" data-name="Path" d="M.393,0H1.649l.2,2.2L3.1,0H4.4L1.413,5.5H0L.9,3.848Z" transform="translate(8.245 1.198)" fill="#21789e"/>
    <path id="Path-4" data-name="Path" d="M1.649.079l.2,2.16L3.1,0H4.4L1.413,5.5H0l.9-1.61" transform="translate(8.245 1.198)" fill="#1a5b80"/>
    <path id="Shape-7" data-name="Shape" d="M0,5.1,1.021,0H3.377A1.6,1.6,0,0,1,4.633,2,1.866,1.866,0,0,1,2.709,3.533H1.728L1.374,5.1Z" transform="translate(0 0.02)" fill="#21789e"/>
    <path id="Shape-8" data-name="Shape" d="M0,5.1,2.317,0h1.06A1.6,1.6,0,0,1,4.633,2,1.866,1.866,0,0,1,2.709,3.533H1.728L1.374,5.1Z" transform="translate(0 0.02)" fill="#1a5b80"/>
    <g id="Group" transform="translate(0.098 1.178)">
      <path id="Shape-9" data-name="Shape" d="M2.032,2.552l.079-.472c-.668.707-2.356.668-2.082-.9C.187.392.894.078,1.954,0L3.485,1.61l-.2.942Z" transform="translate(4.191 1.394)" fill="#06435e"/>
      <path id="Path-5" data-name="Path" d="M.079,2.16,0,2.277l.825.785L2.552,0h-1.3Z" transform="translate(9.993 0.02)" fill="#06435e"/>
      <path id="Path-6" data-name="Path" d="M1.256,1.571,1.61,0,0,1.571Z" transform="translate(0.02 2.375)" fill="#06435e"/>
    </g>
    <g id="Group-2" data-name="Group" transform="translate(12.27 2.552)">
      <path id="Path-7" data-name="Path" d="M1.256,1.649,1.61,0V.039L0,1.649Z" transform="translate(0.02 0.923)" fill="#2273aa"/>
      <path id="Shape-10" data-name="Shape" d="M2.032,2.552l.117-.472c-.667.707-2.395.668-2.119-.9C.186.392.893.078,1.953,0L3.485,1.61l-.2.942Z" transform="translate(4.231 0.02)" fill="#2273aa"/>
      <path id="Path-8" data-name="Path" d="M.9,0,0,2.317H1.256L1.61.746Z" transform="translate(8.108 0.255)" fill="#2273aa"/>
    </g>
    <g id="Group-3" data-name="Group" transform="translate(22.773 0.147)">
      <path id="Path-9" data-name="Path" d="M.2.853V.107H0V0H.51V.107h-.2V.853Z" transform="translate(0 0.093)" fill="#32a6ce"/>
      <path id="Path-10" data-name="Path" d="M0,.907V.053H.118L.275.64A.213.213,0,0,0,.314.747.334.334,0,0,1,.353.587L.51,0H.628V.853H.55V.107l-.2.747H.236L.039.107V.853H0Z" transform="translate(0.589 0.04)" fill="#32a6ce"/>
    </g>
  </g>
</svg>
