<svg id="Group_625" data-name="Group 625" xmlns="http://www.w3.org/2000/svg" width="82.866" height="99.052" viewBox="0 0 82.866 99.052">
  <g id="Group_616" data-name="Group 616" transform="translate(0 85.166)">
    <path id="Path_763" data-name="Path 763" d="M200.625,327.343a8.871,8.871,0,0,1-2.56-.38,6.487,6.487,0,0,1-2.231-1.157,3.687,3.687,0,0,1-1.287-1.94l0-.009,0-.01a1.712,1.712,0,0,1-.041-.323,1.36,1.36,0,0,1,.4-.975,1.444,1.444,0,0,1,1.9-.132,1.329,1.329,0,0,1,.5.752,1.229,1.229,0,0,0,.483.6,3.7,3.7,0,0,0,1.19.567,5.787,5.787,0,0,0,1.654.224,6.082,6.082,0,0,0,2.208-.387c.569-.221.834-.546.834-1.024s-.262-.8-.824-1.027a10.164,10.164,0,0,0-2.43-.612,9.6,9.6,0,0,1-3.7-1.231,3.5,3.5,0,0,1-.717-5.091,4.59,4.59,0,0,1,2.012-1.3,8.125,8.125,0,0,1,2.616-.41,7.31,7.31,0,0,1,3.393.77,4.25,4.25,0,0,1,2.068,2.076l0,.011a1.5,1.5,0,0,1,.107.53,1.4,1.4,0,0,1-.861,1.268l-.008,0a1.5,1.5,0,0,1-.543.114,1.363,1.363,0,0,1-.8-.253,1.537,1.537,0,0,1-.514-.614l0-.006a1.681,1.681,0,0,0-1.035-.782,5.509,5.509,0,0,0-3.766,0c-.457.183-.649.44-.624.833v.02c0,.227.07.555.679.791a9.3,9.3,0,0,0,2.108.5l.01,0a11.087,11.087,0,0,1,4,1.339,3.314,3.314,0,0,1,1.658,3.01,3.533,3.533,0,0,1-.838,2.374,4.921,4.921,0,0,1-2.167,1.422A8.8,8.8,0,0,1,200.625,327.343Z" transform="translate(-194.502 -313.457)" fill="#5b4495"/>
    <path id="Path_764" data-name="Path 764" d="M242.261,327.657a1.409,1.409,0,0,1-1.016-.412,1.316,1.316,0,0,1-.413-.973v-3.258h-5.242v3.258a1.33,1.33,0,0,1-.4.97,1.448,1.448,0,0,1-2.026,0,1.315,1.315,0,0,1-.413-.973V315.778a1.316,1.316,0,0,1,.413-.973,1.448,1.448,0,0,1,2.026,0,1.33,1.33,0,0,1,.4.97v4.449h5.242v-4.449a1.316,1.316,0,0,1,.413-.973,1.448,1.448,0,0,1,2.026,0,1.33,1.33,0,0,1,.4.97v10.494a1.33,1.33,0,0,1-.4.97A1.4,1.4,0,0,1,242.261,327.657Z" transform="translate(-219.098 -314.048)" fill="#5b4495"/>
    <path id="Path_765" data-name="Path 765" d="M274.07,327.312a7.1,7.1,0,0,1-6.119-3.452,6.708,6.708,0,0,1-.95-3.491,6.631,6.631,0,0,1,.959-3.475,7.157,7.157,0,0,1,2.58-2.525,6.967,6.967,0,0,1,3.529-.942,7.1,7.1,0,0,1,6.119,3.452,6.891,6.891,0,0,1,0,6.982,7.075,7.075,0,0,1-6.119,3.452Zm0-11.1a4.173,4.173,0,0,0-2.1.551,4.3,4.3,0,0,0-1.555,1.506,3.962,3.962,0,0,0-.579,2.1,4,4,0,0,0,.571,2.1,4.274,4.274,0,0,0,7.315,0,4.008,4.008,0,0,0,.571-2.1,3.963,3.963,0,0,0-.579-2.1,4.3,4.3,0,0,0-1.554-1.505A4.173,4.173,0,0,0,274.07,316.213Z" transform="translate(-241.122 -313.426)" fill="#5b4495"/>
    <path id="Path_766" data-name="Path 766" d="M312.634,327.657a1.4,1.4,0,0,1-1.011-.415,1.33,1.33,0,0,1-.4-.97V315.778a1.33,1.33,0,0,1,.4-.97,1.4,1.4,0,0,1,1.01-.415h5.5a4.2,4.2,0,0,1,2.005.5,3.9,3.9,0,0,1,1.518,1.481,4.464,4.464,0,0,1,.57,2.3,4.6,4.6,0,0,1-.549,2.274,3.927,3.927,0,0,1-1.5,1.527,4.093,4.093,0,0,1-2.047.535h-4.074v3.258a1.316,1.316,0,0,1-.413.973A1.426,1.426,0,0,1,312.634,327.657Zm5.5-7.43a1.143,1.143,0,0,0,.857-.4,1.594,1.594,0,0,0,.4-1.151,1.568,1.568,0,0,0-.214-.858,1.373,1.373,0,0,0-.506-.487,1.174,1.174,0,0,0-.534-.152h-4.074v3.047Z" transform="translate(-269.559 -314.048)" fill="#5b4495"/>
    <path id="Path_767" data-name="Path 767" d="M351.819,327.312a6.981,6.981,0,0,1-3.565-.952,7.087,7.087,0,0,1-2.563-2.536,6.808,6.808,0,0,1,.009-6.92,7.086,7.086,0,0,1,2.564-2.536,6.984,6.984,0,0,1,3.556-.943,7.067,7.067,0,0,1,3.952,1.187,1.345,1.345,0,0,1,.623,1.164A1.4,1.4,0,0,1,355.66,317a1.449,1.449,0,0,1-.676.166,1.345,1.345,0,0,1-.792-.241,4.327,4.327,0,0,0-2.372-.709,4.172,4.172,0,0,0-2.1.551,4.3,4.3,0,0,0-1.555,1.506,3.962,3.962,0,0,0-.579,2.1,4.007,4.007,0,0,0,.572,2.1,4.247,4.247,0,0,0,3.657,2.055,3.734,3.734,0,0,0,1.63-.349,3.371,3.371,0,0,0,1.2-.948,3.289,3.289,0,0,0,.51-.9h-2.413a1.394,1.394,0,0,1-1.011-.415,1.373,1.373,0,0,1,0-1.939,1.4,1.4,0,0,1,1.011-.415h4.041a1.39,1.39,0,0,1,.986.391,1.334,1.334,0,0,1,.425.947,6,6,0,0,1-.728,3.164,6.163,6.163,0,0,1-2.291,2.363A6.459,6.459,0,0,1,351.819,327.312Z" transform="translate(-291.119 -313.426)" fill="#f8ad39"/>
    <path id="Path_768" data-name="Path 768" d="M394.114,327.312a7.1,7.1,0,0,1-6.119-3.452,6.708,6.708,0,0,1-.95-3.491,6.631,6.631,0,0,1,.959-3.475,7.158,7.158,0,0,1,2.58-2.525,6.968,6.968,0,0,1,3.529-.942,7.1,7.1,0,0,1,6.119,3.452,6.893,6.893,0,0,1,0,6.982,7.076,7.076,0,0,1-6.119,3.452Zm0-11.1a4.171,4.171,0,0,0-2.1.551,4.3,4.3,0,0,0-1.555,1.506,3.962,3.962,0,0,0-.579,2.1,4.007,4.007,0,0,0,.571,2.1,4.274,4.274,0,0,0,7.315,0,4.008,4.008,0,0,0,.572-2.1,3.964,3.964,0,0,0-.579-2.1,4.3,4.3,0,0,0-1.555-1.506A4.173,4.173,0,0,0,394.114,316.213Z" transform="translate(-318.316 -313.426)" fill="#f8ad39"/>
  </g>
  <g id="Group_624" data-name="Group 624" transform="translate(8.488)">
    <path id="Path_773" data-name="Path 773" d="M227.356,158.4a23.517,23.517,0,0,0,21.166,23.178,25.228,25.228,0,0,0,1.595,3.044H224.194a5.911,5.911,0,0,1-5.86-6.684l6.4-48.624a5.909,5.909,0,0,1,5.859-5.142H250.95A46.856,46.856,0,0,1,255.1,135.38a24.445,24.445,0,0,0-3.873-.307C238.218,135.073,227.356,145.454,227.356,158.4Z" transform="translate(-218.282 -106.56)" fill="#f8ad39"/>
    <path id="Path_774" data-name="Path 774" d="M332.737,184.621H304.595A25.22,25.22,0,0,1,303,181.577a24.347,24.347,0,0,0,2.7.149c13.132,0,23.872-10.26,23.872-23.327a23.483,23.483,0,0,0-20-23.02,46.854,46.854,0,0,0-4.149-11.208h20.91a5.913,5.913,0,0,1,5.862,5.142l6.4,48.624A5.912,5.912,0,0,1,332.737,184.621Z" transform="translate(-272.76 -106.56)" fill="#5b4495"/>
    <g id="Group_623" data-name="Group 623" transform="translate(21.178)">
      <g id="Group_621" data-name="Group 621">
        <path id="Path_775" data-name="Path 775" d="M300,101.287a1.143,1.143,0,0,1-1.143-1.143V86.6a9.481,9.481,0,1,0-18.961,0v2.493a1.143,1.143,0,1,1-2.286,0V86.6a11.767,11.767,0,0,1,23.533,0v13.545A1.143,1.143,0,0,1,300,101.287Z" transform="translate(-277.613 -74.833)" fill="#f8ad39"/>
      </g>
      <g id="Group_622" data-name="Group 622" transform="translate(19.382 22.303)">
        <path id="Path_776" data-name="Path 776" d="M331.912,140.323a3.008,3.008,0,1,0,3.008-3.008A3.008,3.008,0,0,0,331.912,140.323Z" transform="translate(-331.912 -137.315)" fill="#f8ad39"/>
      </g>
    </g>
    <path id="Path_777" data-name="Path 777" d="M283.939,181.077c-4.1,8.381-8.064,13.681-7.707,24.325q.02.636.07,1.242a15.965,15.965,0,0,1-11.8-15.293c0-8.915,7.486-15.936,16.446-15.936a16.877,16.877,0,0,1,4.4.581A15.11,15.11,0,0,1,283.939,181.077Z" transform="translate(-248.005 -139.511)" fill="#f8ad39"/>
    <path id="Path_778" data-name="Path 778" d="M318.482,192.4a16.164,16.164,0,0,1-16.445,15.938,16.96,16.96,0,0,1-4.648-.645q-.049-.607-.07-1.242c-.357-10.644,3.607-15.943,7.707-24.325a15.11,15.11,0,0,0,1.412-5.082A16.017,16.017,0,0,1,318.482,192.4Z" transform="translate(-269.092 -140.559)" fill="#5b4495"/>
  </g>
</svg>
