<svg xmlns="http://www.w3.org/2000/svg" width="24" height="7.276" viewBox="0 0 24 7.276">
  <g id="visa_1_" data-name="visa (1)" transform="translate(0 -0.029)">
    <path id="Path" d="M0,6.857,1.219,0h1.9L1.943,6.857Z" transform="translate(8.8 0.257)" fill="#3c58bf"/>
    <path id="Path-2" data-name="Path" d="M0,6.857,1.562,0H3.124L1.943,6.857Z" transform="translate(8.8 0.257)" fill="#293688"/>
    <path id="Path-3" data-name="Path" d="M5.829.3A4.832,4.832,0,0,0,4.076,0C2.171,0,.8.952.8,2.324c0,1.029.952,1.562,1.714,1.9s.99.571.99.876c0,.457-.61.686-1.143.686A4.141,4.141,0,0,1,.533,5.41L.267,5.3,0,6.857a6.177,6.177,0,0,0,2.171.381c2.019,0,3.352-.952,3.352-2.4,0-.8-.5-1.41-1.638-1.9-.686-.343-1.1-.533-1.1-.876,0-.3.343-.61,1.1-.61a3.494,3.494,0,0,1,1.448.267l.19.076L5.829.3Z" transform="translate(11.81 0.029)" fill="#3c58bf"/>
    <path id="Path-4" data-name="Path" d="M5.829.3A4.832,4.832,0,0,0,4.076,0c-1.9,0-2.933.952-2.933,2.324a1.991,1.991,0,0,0,1.371,1.9c.762.343.99.571.99.876,0,.457-.61.686-1.143.686A4.141,4.141,0,0,1,.533,5.41L.267,5.3,0,6.857a6.177,6.177,0,0,0,2.171.381c2.019,0,3.352-.952,3.352-2.4,0-.8-.5-1.41-1.638-1.9-.686-.343-1.1-.533-1.1-.876,0-.3.343-.61,1.1-.61a3.494,3.494,0,0,1,1.448.267l.19.076L5.829.3Z" transform="translate(11.81 0.029)" fill="#293688"/>
    <path id="Shape" d="M5.1,6.857,4.876,5.714H2.438L2.057,6.857H0L2.858.5c.19-.457.533-.5.99-.5H5.333l1.6,6.857Z" transform="translate(17.067 0.257)" fill="#3c58bf"/>
    <path id="Shape-2" data-name="Shape" d="M5.1,6.857,4.876,5.714H2.438L2.057,6.857H0L3.315.5C3.5.038,3.848,0,4.3,0H5.333l1.6,6.857Z" transform="translate(17.067 0.257)" fill="#293688"/>
    <path id="Path-5" data-name="Path" d="M2.857,4.762l-.19-.99A5.522,5.522,0,0,0,0,.762l1.714,6.1H3.771L6.857,0H4.8Z" transform="translate(2.438 0.295)" fill="#3c58bf"/>
    <path id="Path-6" data-name="Path" d="M2.857,4.762l-.19-.99A5.522,5.522,0,0,0,0,.762l1.714,6.1H3.771L6.857,0H5.181Z" transform="translate(2.438 0.295)" fill="#293688"/>
    <path id="Path-7" data-name="Path" d="M0,0,.343.076A6.425,6.425,0,0,1,5.1,3.81L4.419.571C4.3.114,3.962,0,3.543,0H0Z" transform="translate(0 0.257)" fill="#ffbc00"/>
    <path id="Path-8" data-name="Path" d="M0,0H0C2.438.571,4.457,2.057,5.1,3.771l-.648-2.7A.93.93,0,0,0,3.543.343Z" transform="translate(0 0.257)" fill="#f7981d"/>
    <path id="Path-9" data-name="Path" d="M0,0H0C2.438.571,4.457,2.057,5.1,3.771L4.648,2.286a1.343,1.343,0,0,0-.8-1.1Z" transform="translate(0 0.257)" fill="#ed7c00"/>
    <g id="Group" transform="translate(2.476 1)">
      <path id="Path-10" data-name="Path" d="M4.724,3.81l-1.3-1.3-.61,1.448L2.667,3.01A5.522,5.522,0,0,0,0,0L1.714,6.1H3.771Z" transform="translate(0 0.019)" fill="#051244"/>
      <path id="Path-11" data-name="Path" d="M1.943,1.676.3,0,0,1.676Z" transform="translate(6.324 4.438)" fill="#051244"/>
      <path id="Path-12" data-name="Path" d="M3.314,0h0c.152.152.229.267.19.419,0,.457-.61.686-1.143.686A4.141,4.141,0,0,1,.533.724L.267.61,0,2.171a6.177,6.177,0,0,0,2.171.381A3.772,3.772,0,0,0,4.952,1.6Z" transform="translate(9.333 3.752)" fill="#051244"/>
      <path id="Path-13" data-name="Path" d="M0,4.99H1.79l.381-1.143H4.61L4.838,4.99H6.667L6.019,2.21,3.733,0l.114.61s.381,1.714.457,2.1H2.7c.152-.381.762-2.019.762-2.019S3.619.267,3.733,0" transform="translate(14.857 1.124)" fill="#051244"/>
    </g>
  </g>
</svg>
